<svg width="84" height="24" fill="none" xmlns="http://www.w3.org/2000/svg"><path fill-rule="evenodd" clip-rule="evenodd" d="M80.696 23.351H3.156c-1.571 0-2.844-1.22-2.844-2.726V3.023C.312 1.517 1.585.297 3.156.297h77.54c1.572 0 2.845 1.22 2.845 2.726v17.602c0 1.506-1.273 2.726-2.845 2.726z" fill="#000"/><path fill-rule="evenodd" clip-rule="evenodd" d="M27.567 7.826l.35-1.102h1.286l.367 1.102h.794L29.047 3.94h-.944l-1.3 3.886h.764zm1.19-2.595l.32.958h-1.04l.313-.958c.05-.16.094-.34.137-.51l.054-.215h.012l.033.125c.052.194.108.407.172.6zm2.713-.211l.476 1.421c.084.248.143.473.197.704h.018c.054-.23.12-.45.198-.704l.47-1.422h.775l-1.118 2.807h-.727l-1.09-2.807m5.936 2.805a3.61 3.61 0 01-.048-.673V6.143c0-.618-.27-1.187-1.208-1.187-.464 0-.843.12-1.06.246l.145.462c.198-.121.5-.208.788-.208.518 0 .595.306.595.49v.047c-1.082-.006-1.737.356-1.737 1.06 0 .427.33.835.92.835.385 0 .692-.156.865-.374h.02l.052.31h.669zm-1.792-.846c0-.427.5-.53 1.023-.525v.386c0 .052 0 .104-.02.156a.605.605 0 01-.582.387c-.235 0-.421-.127-.421-.404zm2.748-2.743c0 .207.197.38.493.38h.009c.303 0 .5-.173.5-.38-.008-.22-.197-.387-.5-.387-.3 0-.502.167-.502.387zm.943.784h-.892v2.807h.892V5.019zm.903 2.807h.74v-4.1h-.74v4.1zm4.131-.002a3.601 3.601 0 01-.048-.673V6.143c0-.618-.27-1.187-1.209-1.187-.463 0-.84.12-1.058.246l.145.462c.197-.121.498-.208.787-.208.518 0 .596.306.596.49v.047c-1.082-.006-1.738.356-1.738 1.06 0 .427.33.835.92.835.385 0 .692-.156.866-.374h.018l.055.31h.666zm-1.792-.846c0-.427.5-.53 1.023-.525v.386c0 .052 0 .104-.018.156a.607.607 0 01-.584.387c-.235 0-.421-.127-.421-.404zm3.531-3.251h-.74V7.04c0 .283-.013.595-.025.785h.632l.037-.421h.012c.21.346.546.484.925.484.663 0 1.33-.501 1.33-1.51.005-.854-.505-1.423-1.221-1.423-.44 0-.758.177-.938.448h-.012V3.727zm.018 3.107a.748.748 0 01-.018-.168v-.454c0-.07.012-.133.024-.185a.68.68 0 01.655-.519c.493 0 .74.404.74.9 0 .57-.283.922-.746.922a.67.67 0 01-.655-.496zm3.024.992h.739v-4.1h-.74v4.1zm3.236-.479c-.47 0-.885-.22-.903-.727h1.96c.013-.062.025-.166.025-.298 0-.618-.313-1.366-1.263-1.366-.94 0-1.433.731-1.433 1.51 0 .858.56 1.416 1.511 1.416.42 0 .77-.073 1.022-.179l-.108-.483c-.229.075-.47.127-.811.127zm-.223-1.908c.492 0 .612.427.606.686h-1.286c.03-.288.222-.686.68-.686zm3.488 1.004c0 .904.642 1.446 1.467 1.446h.006c.739 0 1.498-.461 1.498-1.492 0-.854-.584-1.441-1.456-1.441-.885 0-1.516.564-1.516 1.487zm2.206-.03c0 .57-.295.963-.715.963h-.008c-.438 0-.72-.41-.72-.95 0-.468.21-.958.734-.958.504 0 .709.507.709.946zm1.634-.559c0-.323-.01-.594-.022-.836h.643l.036.42h.018c.132-.218.451-.482.939-.482.51 0 1.04.316 1.04 1.204v1.664h-.74V6.241c0-.404-.157-.71-.559-.71a.618.618 0 00-.614.64v1.653h-.74m6.063-3.526v.72h.702v.53h-.703v1.234c0 .346.097.519.378.519.133 0 .205-.006.29-.029l.011.535a1.648 1.648 0 01-.535.075c-.276 0-.499-.086-.637-.23-.163-.16-.235-.42-.235-.79V5.55h-.415v-.531h.415v-.524m2.255-.768h.74v1.672h.012a.961.961 0 01.368-.318c.15-.08.323-.125.51-.125.5 0 1.022.316 1.022 1.216v1.654h-.74v-1.58c0-.403-.156-.715-.565-.715a.615.615 0 00-.577.398.612.612 0 00-.03.214v1.683h-.74m5.13-.479c-.47 0-.884-.22-.902-.727h1.96a1.77 1.77 0 00.023-.298c0-.618-.313-1.366-1.263-1.366-.937 0-1.43.731-1.43 1.51 0 .858.559 1.416 1.509 1.416.421 0 .77-.073 1.023-.179l-.11-.483a2.439 2.439 0 01-.81.127zm-.224-1.908c.494 0 .614.427.608.686h-1.286c.03-.288.22-.686.678-.686zm-52.442 6.154c-.02-1.922 1.642-2.858 1.719-2.902-.941-1.315-2.4-1.494-2.913-1.508-1.224-.123-2.411.704-3.034.704-.637 0-1.599-.691-2.633-.671-1.333.02-2.58.76-3.263 1.907-1.409 2.34-.358 5.779.993 7.671.678.926 1.466 1.962 2.5 1.924 1.012-.04 1.39-.617 2.61-.617 1.21 0 1.566.617 2.62.594 1.086-.017 1.77-.93 2.421-1.866.783-1.062 1.096-2.107 1.108-2.16-.026-.01-2.107-.77-2.128-3.076zM16.72 5.94c.544-.653.919-1.541.814-2.441-.788.035-1.772.522-2.34 1.16-.5.562-.95 1.484-.833 2.35.885.063 1.792-.428 2.36-1.07zm15.204 12.625h1.41l-2.67-7.915h-1.642l-2.66 7.915h1.372l.736-2.325h2.682l.772 2.325zm-1.702-5.368l.698 2.067h-2.218l.686-2.067c.18-.656.312-1.154.393-1.49h.024c.205.782.343 1.28.417 1.49zm9.13 4.745c.548-.562.822-1.33.822-2.302 0-.868-.236-1.567-.706-2.101a2.248 2.248 0 00-1.758-.8c-.898 0-1.568.341-2.01 1.023h-.025l-.073-.905h-1.164c.033.643.048 1.269.048 1.88v6.153h1.325v-3.007h.024c.343.54.906.81 1.692.81.725 0 1.335-.249 1.825-.75zm-.92-3.629c.263.361.393.818.393 1.375 0 .603-.138 1.088-.418 1.455-.275.37-.664.553-1.163.553-.425 0-.77-.142-1.036-.429a1.488 1.488 0 01-.397-1.051v-.952c0-.101.02-.23.06-.385a1.45 1.45 0 01.522-.818 1.41 1.41 0 01.888-.312c.482 0 .866.19 1.152.564zm7.77 3.629c.548-.562.82-1.33.82-2.302 0-.868-.233-1.567-.702-2.101-.471-.532-1.057-.8-1.76-.8-.898 0-1.568.341-2.008 1.023h-.025l-.074-.905H41.29c.031.643.048 1.269.048 1.88v6.153h1.324v-3.007h.023c.344.54.907.81 1.692.81.727 0 1.335-.249 1.825-.75zm-.92-3.629c.263.361.394.818.394 1.375 0 .603-.14 1.088-.417 1.455-.277.37-.666.553-1.164.553-.426 0-.77-.142-1.037-.429a1.487 1.487 0 01-.396-1.051v-.952c0-.101.02-.23.062-.385.081-.338.253-.609.52-.818a1.41 1.41 0 01.887-.312c.482 0 .866.19 1.152.564zm9.402 2.033c0 .672-.244 1.22-.735 1.644-.538.461-1.286.692-2.248.692-.89 0-1.603-.164-2.144-.493l.307-1.056a3.76 3.76 0 001.915.504c.498 0 .886-.107 1.165-.322.277-.216.415-.505.415-.866 0-.32-.113-.592-.341-.812-.229-.219-.61-.422-1.141-.611-1.447-.518-2.17-1.275-2.17-2.27 0-.65.254-1.184.761-1.6.506-.415 1.18-.624 2.021-.624.753 0 1.378.127 1.876.376l-.331 1.034a3.37 3.37 0 00-1.58-.365c-.467 0-.83.11-1.09.33a.927.927 0 00-.332.716c0 .313.125.571.38.775.22.187.62.39 1.2.611.711.274 1.234.594 1.57.962.333.368.502.827.502 1.375zm4.374-2.537H57.6v2.77c0 .706.257 1.058.773 1.058.235 0 .432-.02.587-.058l.036.962c-.259.095-.603.141-1.028.141-.522 0-.931-.153-1.226-.457-.294-.306-.441-.82-.441-1.539v-2.877h-.87v-.952h.87v-1.044l1.299-.377v1.42h1.458m5.798 4.97c.524-.564.784-1.284.784-2.161 0-.854-.253-1.55-.76-2.091-.53-.556-1.234-.834-2.109-.834-.906 0-1.627.281-2.161.847-.536.562-.802 1.286-.802 2.172 0 .845.258 1.546.776 2.101.52.555 1.215.834 2.09.834.907 0 1.634-.289 2.182-.868zm-.945-3.475c.237.378.356.828.356 1.354 0 .527-.121.982-.367 1.366-.286.465-.683.695-1.187.695-.517 0-.917-.227-1.203-.683-.238-.377-.354-.827-.354-1.353 0-.543.116-1.001.354-1.379.277-.456.682-.684 1.213-.684.515 0 .912.228 1.188.684zm6.031-.378a2.395 2.395 0 00-.417-.035c-.465 0-.827.17-1.08.505-.22.299-.329.674-.329 1.127v2.995h-1.323l.01-3.91c0-.659-.016-1.257-.048-1.798h1.153l.049 1.093h.034a1.96 1.96 0 01.662-.904 1.65 1.65 0 01.958-.306c.122 0 .233.009.33.023m5.871 3.254a2.97 2.97 0 00.047-.576c0-.712-.173-1.312-.524-1.797-.441-.611-1.093-.916-1.95-.916-.874 0-1.57.305-2.083.916-.492.571-.736 1.288-.736 2.15 0 .876.265 1.576.79 2.095.527.522 1.253.783 2.176.783.769 0 1.434-.12 1.998-.353l-.207-.881c-.483.18-1.02.27-1.606.27-.532 0-.965-.132-1.3-.399-.368-.297-.56-.728-.574-1.292h3.969zm-1.47-1.88c.178.275.264.6.255.976h-2.754a1.82 1.82 0 01.39-.987 1.275 1.275 0 011.053-.518c.473 0 .827.178 1.055.53z" fill="#fff"/></svg>