<svg width="69" height="72" fill="none" xmlns="http://www.w3.org/2000/svg"><rect width="37" height="72" rx="4" fill="#F3F3F3"/><rect x="6" y="20" width="14" height="3" rx="1.5" fill="#353B4C"/><rect x="6" y="50" width="25" height="3" rx="1.5" fill="#353B4C"/><rect x="8.121" y="28" width="8" height="3" rx="1.5" transform="rotate(45 8.121 28)" fill="#353B4C"/><rect x="17.778" y="30.121" width="8" height="3" rx="1.5" transform="rotate(135 17.778 30.121)" fill="#353B4C"/><rect x="6" y="7" width="9" height="9" rx="4" fill="#353B4C"/><rect x="6" y="56" width="25" height="3" rx="1.5" fill="#353B4C"/><path fill-rule="evenodd" clip-rule="evenodd" d="M61.025 14.572c-6.005-1.97-12.46 1.317-14.52 7.348-2.061-6.037-8.515-9.318-14.52-7.348-6.075 2.002-9.388 8.614-7.415 14.786C26.466 35.242 44.052 51 46.302 51s20.229-15.739 22.125-21.642c1.979-6.184-1.334-12.797-7.402-14.786z" fill="url(#paint0_linear)"/><defs><linearGradient id="paint0_linear" x1="24" y1="14" x2="24" y2="51" gradientUnits="userSpaceOnUse"><stop stop-color="#D9FF65"/><stop offset="1" stop-color="#84B400"/></linearGradient></defs></svg>