<svg width="22" height="28" fill="none" xmlns="http://www.w3.org/2000/svg"><path fill-rule="evenodd" clip-rule="evenodd" d="M15.597 0H.749C.335 0 0 .328 0 .963V27.5c0 .172.335.5.749.5H21.25c.414 0 .749-.328.749-.5V6.489c0-.348-.048-.46-.131-.542L15.915.128A.457.457 0 0015.597 0z" fill="#E9E9E0"/><path fill-rule="evenodd" clip-rule="evenodd" d="M16 0v6h6l-6-6z" fill="#D9D7CA"/><path fill-rule="evenodd" clip-rule="evenodd" d="M6.09 17a.866.866 0 01-.503-.16c-.541-.385-.614-.812-.58-1.104.095-.801 1.141-1.64 3.112-2.494a31.88 31.88 0 001.969-5.29c-.519-1.07-1.023-2.456-.656-3.27.13-.284.29-.503.59-.597.118-.038.418-.085.528-.085.236 0 .446.258.604.454l.052.062.003.004c.155.187.493.594-.197 3.344.7 1.37 1.694 2.765 2.645 3.721.681-.117 1.268-.176 1.746-.176.814 0 1.307.18 1.508.55.167.306.099.664-.202 1.063-.29.383-.69.586-1.154.586-.633 0-1.369-.378-2.19-1.125a25.934 25.934 0 00-4.59 1.389c-.434.873-.85 1.576-1.238 2.092C7.004 16.67 6.544 17 6.09 17zm1.383-2.523c-1.11.591-1.563 1.077-1.596 1.35-.005.046-.019.165.224.341.077-.023.53-.218 1.372-1.69zm7.36-1.98a9.273 9.273 0 00-.27-.206c.35-.042.68-.053.942-.053.427 0 .532.055.596.089l.015.008a.767.767 0 01-.12.204c-.16.212-.507.217-.629.217-.206 0-.316-.087-.535-.259zM10.68 9.052a33.85 33.85 0 01-1.39 3.723 27.07 27.07 0 013.377-.995 16.844 16.844 0 01-1.987-2.728zm-.316-4.164c-.05.016-.691.864.05 1.582.493-1.04-.028-1.59-.05-1.582zM21.252 28H.748A.762.762 0 010 27.226V19h22v8.226a.762.762 0 01-.748.774z" fill="#CC4B4C"/><path fill-rule="evenodd" clip-rule="evenodd" d="M5.372 27h.82v-1.984h.609c.264 0 .506-.042.724-.126a1.61 1.61 0 00.56-.358c.156-.154.277-.344.363-.57.087-.227.13-.48.13-.758a1.61 1.61 0 00-.154-.712 1.692 1.692 0 00-.968-.876 1.88 1.88 0 00-.635-.112H5.372V27zm.82-2.64v-2.177h.616c.21 0 .378.036.506.108a.85.85 0 01.297.268c.07.107.117.22.14.336a1.818 1.818 0 01-.041.872.909.909 0 01-.198.354.74.74 0 01-.27.183.826.826 0 01-.297.056h-.752zm7.284.899a4.38 4.38 0 00.133-1.16 2.98 2.98 0 00-.157-.959 2.445 2.445 0 00-.475-.83 2.32 2.32 0 00-.8-.586 2.673 2.673 0 00-1.117-.22H9.541V27h1.907c.064 0 .162-.009.294-.025.132-.018.278-.057.438-.12.159-.062.324-.155.495-.28a1.83 1.83 0 00.461-.51c.137-.217.25-.485.339-.806zm-1.097.503c-.246.388-.647.582-1.203.582h-.813v-4.161h.478c.392 0 .711.056.957.168.246.111.441.258.585.44.143.181.24.384.29.607.05.224.075.45.075.679 0 .736-.123 1.298-.369 1.685zm3.254-3.579v1.73h2.106v.611h-2.106V27H14.8v-5.496h3.151v.679h-2.317z" fill="#fff"/></svg>