<svg width="12" height="15" fill="none" xmlns="http://www.w3.org/2000/svg"><path fill-rule="evenodd" clip-rule="evenodd" d="M6 0c1.996 0 3.791.95 4.923 2.608a6.116 6.116 0 01.696 5.584 4.75 4.75 0 01-.869 1.45l-4.355 5.173a.516.516 0 01-.79 0L1.25 9.641a4.781 4.781 0 01-.87-1.452 6.115 6.115 0 01.698-5.581C2.209.951 4.004 0 6 0zm3.964 8.958a3.75 3.75 0 00.684-1.133 5.059 5.059 0 00-.578-4.62A4.866 4.866 0 006 1.049c-1.65 0-3.134.786-4.07 2.156a5.058 5.058 0 00-.58 4.617c.143.389.374.77.686 1.136L6 13.667 9.962 8.96l.002-.003z" fill="#E1E1E1"/><path fill-rule="evenodd" clip-rule="evenodd" d="M3 6c0-1.654 1.346-3 3-3s3 1.346 3 3-1.346 3-3 3-3-1.346-3-3zm1.071 0A1.93 1.93 0 006 7.929 1.93 1.93 0 007.929 6 1.93 1.93 0 006 4.071 1.93 1.93 0 004.071 6z" fill="#fff"/></svg>