<svg width="114" height="76" fill="none" xmlns="http://www.w3.org/2000/svg"><path fill-rule="evenodd" clip-rule="evenodd" d="M12.574 41.5a4 4 0 013.708-2.5h81.35a4 4 0 013.727 2.546l11.314 29c1.023 2.623-.911 5.454-3.727 5.454H4.552C1.715 76-.22 73.13.843 70.5l11.731-29zm89.016-6.907a4 4 0 01-3.708 2.5h-81.35a4 4 0 01-3.727-2.546l-11.314-29C.468 2.924 2.402.093 5.217.093h104.395c2.837 0 4.772 2.87 3.708 5.5l-11.73 29z" fill="#F3F3F3"/><ellipse cx="58.5" cy="51" rx="41.5" ry="16" fill="url(#paint0_linear)"/><ellipse cx="58.5" cy="50" rx="32.5" ry="11" fill="#F7F7F7"/><rect y="74" width="113" height="2" rx="1" fill="#353B4C"/><path fill-rule="evenodd" clip-rule="evenodd" d="M57.933 47.839c-2.1-.007-13.277 7.35-13.445 9.161-.167 1.81 6.702 2 12.826 2 6.124 0 12.242-.213 12.242-1.304 0-1.09-9.523-9.85-11.623-9.857z" fill="#353B4C"/><defs><linearGradient id="paint0_linear" x1="33.343" y1="-12.168" x2="17.849" y2="59.453" gradientUnits="userSpaceOnUse"><stop stop-color="#D9FF65"/><stop offset="1" stop-color="#84B400"/></linearGradient></defs></svg>