<svg width="32" height="27" fill="none" xmlns="http://www.w3.org/2000/svg"><path fill-rule="evenodd" clip-rule="evenodd" d="M7.939 15.613L.565 12.946a.834.834 0 01-.008-1.575L30.817.058c.642-.24 1.304.304 1.164.957l-5.43 25.314c-.128.598-.851.869-1.362.51l-7.413-5.216a1.257 1.257 0 00-1.495.04l-4.11 3.247c-.477.378-1.196.168-1.378-.402l-2.854-8.895zm16.804-10.02l-14.41 8.6a1.386 1.386 0 00-.634 1.582l1.558 5.306c.11.376.674.337.727-.051l.405-2.91a2.366 2.366 0 01.764-1.43L25.046 5.979c.223-.2-.044-.54-.303-.385z" fill="#D0D0D0"/></svg>