<svg width="23" height="10" fill="none" xmlns="http://www.w3.org/2000/svg"><path fill-rule="evenodd" clip-rule="evenodd" d="M.145.833c.68-.613 5.436.285 11.062 3.887 5.627 3.603 10.46 5.839 11.23 5.158.77-.68-1.04-2.884-1.04-4.878 0-1.994 2.229-4 1.43-4.85-.798-.85-7.789 2.075-10.961 4.57C8.693 7.216 1.062 10.567.604 9.878.145 9.19 1.4 7.565 1.4 5.327 1.4 3.088-.535 1.447.145.833z" fill="url(#paint0_linear)"/><circle cx="12" cy="5" r="4" fill="#353B4C"/><path fill-rule="evenodd" clip-rule="evenodd" d="M12.944 8H11.46V3.67L10 4.096V2.971L12.808 2h.136v6z" fill="#28CDC2"/><defs><linearGradient id="paint0_linear" x1="3.507" y1=".14" x2="2.955" y2="8.488" gradientUnits="userSpaceOnUse"><stop stop-color="#28CDC2"/><stop offset=".486" stop-color="#01B464"/><stop offset="1" stop-color="#00DF99"/></linearGradient></defs></svg>