<svg width="157" height="32" fill="none" xmlns="http://www.w3.org/2000/svg"><path fill-rule="evenodd" clip-rule="evenodd" d="M76.754 18.258l-1.256-3.703c-.34-1.014-.444-1.42-.601-2.434-.157 1.014-.262 1.42-.602 2.434l-1.255 3.703h3.713zm-4.733 2.967L71 24.268c-.366 1.065-1.099 1.191-1.961 1.191-.863 0-1.935-.152-1.57-1.191l5.413-15.723c.314-.913 1.151-1.268 2.014-1.268.863 0 1.7.355 2.013 1.268l5.413 15.723c.366 1.04-.706 1.191-1.569 1.191s-1.595-.126-1.96-1.191l-1.02-3.043H72.02zm14.551-8.267c.68-.685 1.935-1.142 3.138-1.142 4.21 0 5.753 2.815 5.753 6.873 0 4.057-1.726 6.897-5.753 6.897-1.098 0-2.197-.304-2.929-.989v4.185c0 .963-.863 1.217-1.752 1.217-.863 0-1.752-.254-1.752-1.217V13.135c0-.964.706-1.293 1.595-1.293.759 0 1.543.203 1.7 1.116zm.21 6.187c0 1.623.705 3.804 2.588 3.804 2.144 0 2.406-2.358 2.406-4.26 0-1.902-.262-4.235-2.406-4.235-1.752 0-2.589 1.952-2.589 3.55v1.141zm13.374-6.187c.68-.685 1.935-1.142 3.138-1.142 4.21 0 5.752 2.815 5.752 6.873 0 4.057-1.725 6.897-5.752 6.897-1.099 0-2.197-.304-2.929-.989v4.185c0 .963-.863 1.217-1.752 1.217-.863 0-1.752-.254-1.752-1.217V13.135c0-.964.706-1.293 1.595-1.293.758 0 1.543.203 1.7 1.116zm.209 6.187c0 1.623.706 3.804 2.589 3.804 2.144 0 2.405-2.358 2.405-4.26 0-1.902-.261-4.235-2.405-4.235-1.752 0-2.589 1.952-2.589 3.55v1.141z" fill="#84B400"/><path fill-rule="evenodd" clip-rule="evenodd" d="M111.091 16.406c0-5.401 1.909-9.154 7.452-9.154 4.21 0 6.119 2.46 6.459 5.655.078.786-.758 1.217-1.674 1.217-.993.025-1.647-.177-1.856-1.09-.392-1.826-1.072-2.815-3.086-2.815-3.294 0-3.713 3.423-3.713 6.187 0 2.74.471 6.188 3.713 6.163 2.066 0 2.694-1.319 3.138-2.84.235-.761.811-1.066 1.857-1.091 1.229 0 1.882.431 1.673 1.496-.523 2.739-2.432 5.427-6.668 5.427-5.439 0-7.295-3.779-7.295-9.155zm22.788 7.836c-.889.736-1.987 1.319-3.922 1.319-2.38 0-4.498-1.547-4.498-4.159 0-4.362 4.445-4.818 7.871-4.615.026-1.75-.994-2.257-2.066-2.257-1.438-.025-2.013.253-3.242.76-.628.254-1.177.28-1.674-.278-.497-.609-.523-1.573.262-2.029 1.516-.888 3.007-1.192 4.706-1.192 2.981 0 5.518 1.319 5.518 4.844v5.858c0 .558.052 1.09.104 1.699.079.887-.47 1.14-1.307 1.166-.915 0-1.36-.304-1.752-1.116zm-.549-4.97c-1.464-.101-4.419-.101-4.341 2.13.026.862.732 1.42 1.831 1.42 1.83 0 2.745-1.674 2.51-3.55zm6.341 5.021v-9.408h-.837c-.994 0-1.255-.685-1.255-1.37 0-.684.261-1.369 1.255-1.369h.837v-.38c0-2.815 1.072-4.463 4.811-4.463.392 0 .837.025 1.151.101.706.178.915.634.915 1.496-.026.964-.314 1.344-1.151 1.319-.157-.025-.366-.025-.523-.025-.836.025-1.699.228-1.699 1.521v.431h1.15c.994 0 1.255.685 1.255 1.37 0 .684-.261 1.369-1.255 1.369h-1.15v9.408c0 .964-.863 1.217-1.752 1.217-.863 0-1.752-.253-1.752-1.217zm11.708-9.865c-1.517 0-2.406 1.04-2.589 2.638h4.288c.262 0 .497-.152.471-.558-.105-1.344-.968-2.08-2.17-2.08zm5.099 7.862c-.68 2.155-2.641 3.347-5.152 3.347-4.34-.025-6.145-3.297-6.171-6.999 0-3.576 1.648-6.822 6.067-6.822 3.582 0 5.648 2.207 5.622 5.427-.026 1.7-.785 2.181-2.38 2.181h-5.779c.053 1.674.576 3.449 2.72 3.424 1.098 0 1.621-.482 2.092-1.344.261-.482.915-.685 1.908-.584 1.151.127 1.256.862 1.073 1.37z" fill="#fff"/><path d="M3 3.014h2.5H3zm28.334 12.274l1.075-2.258-.075-.035-.077-.03-.923 2.323zm1.696 0l-1.04-2.274 1.04 2.274zM3 28.973H.5 3zm0-11.981H.5 3zM5.5 3.014a2.488 2.488 0 01-1.409 2.242 2.455 2.455 0 01-1.537.196 1.837 1.837 0 01-.142-.035c-.061-.018-.051-.02.094.041.257.107.676.296 1.293.581 1.192.552 3.058 1.434 5.45 2.531a436.788 436.788 0 0021.162 9.041l1.846-4.647a431.68 431.68 0 01-20.922-8.938c-2.4-1.1-4.18-1.943-5.436-2.524A45.303 45.303 0 004.425.84a6.153 6.153 0 00-.603-.22C3.753.6 3.472.515 3.124.502a2.545 2.545 0 00-1.2.248A2.513 2.513 0 00.5 3.014h5zm24.76 14.531c8.066 3.84 15.214 7.377 20.37 9.903 2.567 1.259 4.66 2.276 6.115 2.949.718.332 1.33.603 1.783.778.204.079.486.183.767.247.093.022.451.106.888.068.21-.019.742-.087 1.277-.476a2.521 2.521 0 001.04-2.041h-5c0-.76.355-1.52 1.021-2.004a2.448 2.448 0 011.223-.46 2.29 2.29 0 01.673.04c.09.021.087.03-.082-.036a29.19 29.19 0 01-1.492-.655c-1.394-.645-3.436-1.637-6.014-2.9-5.136-2.517-12.32-6.072-20.42-9.927l-2.15 4.514zM62.5 28.973v-12.48h-5v12.48h5zm0-12.48V3.014h-5v13.479h5zm0-13.479A2.502 2.502 0 0060.31.532a2.481 2.481 0 00-.744.017c-.19.032-.34.081-.376.092a4.863 4.863 0 00-.296.108c-.161.064-.374.153-.614.257-.49.211-1.19.523-2.047.908-1.72.774-4.116 1.867-6.833 3.112-5.445 2.495-12.172 5.594-17.41 7.988l2.08 4.548c5.232-2.392 11.99-5.506 17.413-7.99 2.716-1.245 5.099-2.332 6.801-3.098a160.92 160.92 0 011.977-.878c.231-.1.384-.163.469-.196.052-.02.036-.013-.015.003-.004.001-.131.044-.305.074-.045.007-.345.064-.727.015A2.495 2.495 0 0157.5 3.014h5zm-30.51 10c-4.769 2.18-12.298 5.694-18.597 8.604a824.9 824.9 0 01-8.063 3.687c-1.031.462-1.844.818-2.391 1.046-.281.117-.453.183-.536.212-.06.021-.001-.003.112-.028.02-.004.264-.064.588-.052a2.494 2.494 0 012.397 2.49h-5a2.506 2.506 0 002.426 2.507c.345.012.619-.052.677-.065.192-.042.366-.102.46-.135.22-.078.499-.19.797-.313.611-.255 1.474-.633 2.514-1.098a827.393 827.393 0 008.116-3.712c6.333-2.926 13.819-6.42 18.58-8.595l-2.08-4.548zM5.5 28.973V16.992h-5v11.98l5 .001zm0-11.981V3.014h-5v13.978h5z" fill="#fff"/><ellipse cx="32.303" cy="16.298" rx="9.697" ry="9.532" fill="#353B4C" stroke="#84B400" stroke-width="4"/></svg>