<svg width="157" height="32" fill="none" xmlns="http://www.w3.org/2000/svg"><path fill-rule="evenodd" clip-rule="evenodd" d="M76.754 18.258l-1.256-3.703c-.34-1.014-.444-1.42-.601-2.434-.157 1.014-.262 1.42-.602 2.434l-1.255 3.703h3.713zm-4.733 2.967L71 24.268c-.366 1.065-1.099 1.191-1.961 1.191-.863 0-1.935-.152-1.57-1.191l5.413-15.723c.314-.913 1.151-1.268 2.014-1.268.863 0 1.7.355 2.013 1.268l5.413 15.723c.366 1.04-.706 1.191-1.569 1.191s-1.595-.126-1.96-1.191l-1.02-3.043H72.02zm14.551-8.267c.68-.685 1.935-1.142 3.138-1.142 4.21 0 5.753 2.815 5.753 6.873 0 4.057-1.726 6.897-5.753 6.897-1.098 0-2.197-.304-2.929-.989v4.185c0 .963-.863 1.217-1.752 1.217-.863 0-1.752-.254-1.752-1.217V13.135c0-.964.706-1.293 1.595-1.293.759 0 1.543.203 1.7 1.116zm.21 6.187c0 1.623.705 3.804 2.588 3.804 2.144 0 2.406-2.358 2.406-4.26 0-1.902-.262-4.235-2.406-4.235-1.752 0-2.589 1.952-2.589 3.55v1.141zm13.374-6.187c.68-.685 1.935-1.142 3.138-1.142 4.21 0 5.752 2.815 5.752 6.873 0 4.057-1.725 6.897-5.752 6.897-1.099 0-2.197-.304-2.929-.989v4.185c0 .963-.863 1.217-1.752 1.217-.863 0-1.752-.254-1.752-1.217V13.135c0-.964.706-1.293 1.595-1.293.758 0 1.543.203 1.7 1.116zm.209 6.187c0 1.623.706 3.804 2.589 3.804 2.144 0 2.405-2.358 2.405-4.26 0-1.902-.261-4.235-2.405-4.235-1.752 0-2.589 1.952-2.589 3.55v1.141z" fill="#84B400"/><path fill-rule="evenodd" clip-rule="evenodd" d="M111.091 16.406c0-5.401 1.909-9.154 7.452-9.154 4.21 0 6.119 2.46 6.459 5.655.078.786-.758 1.217-1.674 1.217-.993.025-1.647-.177-1.856-1.09-.392-1.826-1.072-2.815-3.086-2.815-3.294 0-3.713 3.423-3.713 6.187 0 2.74.471 6.188 3.713 6.163 2.066 0 2.694-1.319 3.138-2.84.235-.761.811-1.066 1.857-1.091 1.229 0 1.882.431 1.673 1.496-.523 2.739-2.432 5.427-6.668 5.427-5.439 0-7.295-3.779-7.295-9.155zm22.788 7.836c-.889.736-1.987 1.319-3.922 1.319-2.38 0-4.498-1.547-4.498-4.159 0-4.362 4.445-4.818 7.871-4.615.026-1.75-.994-2.257-2.066-2.257-1.438-.025-2.013.253-3.242.76-.628.254-1.177.28-1.674-.278-.497-.609-.523-1.573.262-2.029 1.516-.888 3.007-1.192 4.706-1.192 2.981 0 5.518 1.319 5.518 4.844v5.858c0 .558.052 1.09.104 1.699.079.887-.47 1.14-1.307 1.166-.915 0-1.36-.304-1.752-1.116zm-.549-4.97c-1.464-.101-4.419-.101-4.341 2.13.026.862.732 1.42 1.831 1.42 1.83 0 2.745-1.674 2.51-3.55zm6.341 5.021v-9.408h-.837c-.994 0-1.255-.685-1.255-1.37 0-.684.261-1.369 1.255-1.369h.837v-.38c0-2.815 1.072-4.463 4.811-4.463.392 0 .837.025 1.151.101.706.178.915.634.915 1.496-.026.964-.314 1.344-1.151 1.319-.157-.025-.366-.025-.523-.025-.836.025-1.699.228-1.699 1.521v.431h1.15c.994 0 1.255.685 1.255 1.37 0 .684-.261 1.369-1.255 1.369h-1.15v9.408c0 .964-.863 1.217-1.752 1.217-.863 0-1.752-.253-1.752-1.217zm11.708-9.865c-1.517 0-2.406 1.04-2.589 2.638h4.288c.262 0 .497-.152.471-.558-.105-1.344-.968-2.08-2.17-2.08zm5.099 7.862c-.68 2.155-2.641 3.347-5.152 3.347-4.34-.025-6.145-3.297-6.171-6.999 0-3.576 1.648-6.822 6.067-6.822 3.582 0 5.648 2.207 5.622 5.427-.026 1.7-.785 2.181-2.38 2.181h-5.779c.053 1.674.576 3.449 2.72 3.424 1.098 0 1.621-.482 2.092-1.344.261-.482.915-.685 1.908-.584 1.151.127 1.256.862 1.073 1.37z" fill="#353B4C"/><path d="M2.835 4.804L1.462 3.349l1.373 1.455zm18.736 4.791l1.682 1.082L24.46 8.8l-1.998-.995-.891 1.79zm-17.895-.61l-1.79.89 1.79-.89zm.884 15.777l-1.906-.605 1.906.605zm-.544 4.45L2.33 30.285l1.687-1.073zm17.374-6.5l.944 1.763 1.859-.995-1.091-1.804-1.712 1.035zm5.48-10.232l1.017-1.723-1.553-.917-1.072 1.451 1.608 1.188zm-.26 7.256l-1.688 1.073 1.053 1.657 1.676-1.022-1.041-1.707zm11.45-.102l-1.053 1.7 1.712 1.06 1.048-1.718-1.707-1.042zm-.612-7.517l1.521-1.298-1.134-1.329-1.469.945 1.082 1.682zm-4.418 3.176l-1.272-1.543 1.272 1.543zm-1.696 0l-1.114 1.661 1.114-1.66zm11.88 7.42l-1.71-1.035-1.06 1.75 1.775 1.02.995-1.735zm-.549-13.66l-.95-1.76-2.002 1.08 1.33 1.848 1.622-1.169zM61.27 2.96l-1.49 1.335 1.49-1.335zm-1.215 5.666l-1.781-.91 1.78.91zm-.567 14.864l1.865-.72-1.865.72zm.777 5.721l1.358 1.468-1.358-1.468zM4.207 6.258c-.199.188-.328.178-.142.135a4.09 4.09 0 01.86-.069c.85.004 2.067.15 3.62.5 3.092.698 7.29 2.15 12.135 4.562l1.782-3.581c-5.076-2.527-9.577-4.103-13.037-4.883-1.723-.388-3.246-.593-4.485-.598a7.95 7.95 0 00-1.77.17c-.518.12-1.173.35-1.708.855l2.745 2.91zm1.26 1.836c-.518-1.042-.832-1.692-.963-2.166-.06-.217-.034-.241-.046-.15a.85.85 0 01-.25.48l-2.746-2.91C.22 4.522.387 6.053.65 6.996c.257.93.786 1.973 1.237 2.88l3.581-1.781zm2.601 8.835c0-3.671-1.575-6.774-2.6-8.835L1.885 9.876c1.069 2.148 2.182 4.45 2.182 7.053h4zm-1.601 8.438c.663-2.09 1.601-5.011 1.601-8.438h-4c0 2.734-.743 5.112-1.414 7.228l3.813 1.21zm-.763 2.772c.123.193-.008.218.098-.396.1-.581.33-1.32.665-2.376l-3.813-1.21c-.306.965-.638 1.997-.795 2.908-.15.877-.232 2.117.47 3.22l3.375-2.146zm14.743-7.191c-4.003 2.142-8.077 4.03-11.213 5.225-1.58.602-2.852 1.002-3.728 1.183-.451.094-.689.106-.765.102-.23-.01.49-.063.963.681L2.33 30.285c.664 1.045 1.816 1.15 2.229 1.17.566.025 1.18-.062 1.76-.182 1.185-.246 2.687-.732 4.34-1.362 3.331-1.27 7.562-3.234 11.676-5.436l-1.887-3.527zm2.655.728a10.34 10.34 0 01-1.496-5.378h-4c0 2.727.758 5.274 2.073 7.449l3.423-2.07zm-1.496-5.378c0-2.077.605-4 1.647-5.621L19.89 8.514a14.342 14.342 0 00-2.283 7.784h4zm3.656-5.007a8.41 8.41 0 00-1.656 5.007h4c0-.97.318-1.88.873-2.63l-3.217-2.377zm-1.656 5.007c0 1.648.482 3.199 1.316 4.511l3.376-2.145a4.395 4.395 0 01-.692-2.366h-4zm7.426-1.968c-1.52 1.179-3.394 2.437-5.463 3.699l2.082 3.415c2.15-1.31 4.16-2.655 5.833-3.954l-2.452-3.16zm.12 3.246c2 1.328 3.959 2.584 5.855 3.758l2.106-3.4a216.798 216.798 0 01-5.749-3.69l-2.212 3.332zm8.615 3.1A8.391 8.391 0 0041 16.297h-4c0 .83-.233 1.615-.648 2.295l3.415 2.082zM41 16.297a8.428 8.428 0 00-2.03-5.479l-3.044 2.597A4.428 4.428 0 0137 16.298h4zm-4.634-5.863c-1.692 1.088-3.264 2.207-4.608 3.315l2.543 3.087c1.192-.982 2.63-2.01 4.229-3.037l-2.164-3.365zm-4.608 3.315c-.231.19-.473.383-.726.58l2.452 3.16c.282-.219.554-.436.817-.653l-2.543-3.087zm-1.538 3.204c.312.21.622.416.932.622l2.212-3.333c-.304-.202-.61-.405-.916-.61l-2.228 3.321zM25.853 14.2a90.17 90.17 0 014.367 2.753l2.228-3.322a94.142 94.142 0 00-4.56-2.875L25.853 14.2zM43 16.299c0 1.976-.547 3.81-1.497 5.38l3.422 2.07A14.341 14.341 0 0047 16.299h-4zm-1.958-6.077A10.35 10.35 0 0143 16.298h4a14.35 14.35 0 00-2.711-8.414l-3.247 2.337zM62.76 1.625c-.64-.712-1.495-.94-2.097-1.02-.641-.086-1.335-.051-2.012.037-1.362.178-3.021.623-4.802 1.227-3.585 1.214-7.985 3.184-12.133 5.423l1.9 3.52c3.999-2.159 8.19-4.028 11.517-5.155 1.674-.568 3.05-.92 4.036-1.048.497-.065.806-.06.963-.04.196.027-.067.043-.35-.273l2.978-2.67zm-.923 7.911c.592-1.159 1.267-2.464 1.613-3.647.343-1.17.553-2.877-.69-4.264l-2.979 2.67c-.174-.194.051-.285-.17.47-.217.743-.684 1.674-1.336 2.952l3.562 1.82zm-2.252 6.512c0-2.012 1.05-4.157 2.252-6.512l-3.562-1.819c-1.094 2.143-2.69 5.178-2.69 8.33h4zm1.77 6.723c-.916-2.369-1.77-4.648-1.77-6.723h-4c0 2.959 1.187 5.96 2.038 8.164l3.731-1.442zm.269 7.91c1.359-1.258 1.21-3.023.986-4.12-.242-1.184-.775-2.547-1.256-3.79l-3.73 1.441c.524 1.358.907 2.367 1.067 3.149.177.87-.086.663.217.383l2.716 2.936zM42.22 24.448c4.517 2.592 8.526 4.598 11.628 5.796 1.54.595 2.944 1.024 4.117 1.203.586.089 1.196.128 1.778.056.572-.072 1.288-.274 1.88-.823l-2.715-2.936c.24-.223.439-.223.34-.21-.089.01-.302.016-.682-.042-.757-.115-1.85-.429-3.277-.98-2.833-1.093-6.644-2.989-11.078-5.534l-1.991 3.47z" fill="#353B4C"/><ellipse cx="32.303" cy="16.298" rx="9.697" ry="9.532" stroke="#84B400" stroke-width="4"/></svg>