<svg width="157" height="32" viewBox="0 0 157 32" fill="none" xmlns="http://www.w3.org/2000/svg">
<path fill-rule="evenodd" clip-rule="evenodd" d="M76.7535 18.2576L75.4983 14.5552C75.1584 13.5408 75.0538 13.1351 74.8969 12.1207C74.74 13.1351 74.6354 13.5408 74.2955 14.5552L73.0404 18.2576H76.7535ZM72.0206 21.2246L71.0008 24.2677C70.6347 25.3328 69.9025 25.4595 69.0396 25.4595C68.1767 25.4595 67.1046 25.3074 67.4707 24.2677L72.8835 8.54511C73.1972 7.63219 74.034 7.27716 74.8969 7.27716C75.7598 7.27716 76.5966 7.63219 76.9104 8.54511L82.3231 24.2677C82.6892 25.3074 81.6171 25.4595 80.7542 25.4595C79.8913 25.4595 79.1591 25.3328 78.7931 24.2677L77.7733 21.2246H72.0206ZM86.572 12.9576C87.2518 12.2729 88.507 11.8164 89.7098 11.8164C93.9197 11.8164 95.4625 14.6313 95.4625 18.6887C95.4625 22.7461 93.7367 25.5863 89.7098 25.5863C88.6116 25.5863 87.5133 25.282 86.7812 24.5973V28.7816C86.7812 29.7452 85.9183 29.9988 85.0292 29.9988C84.1663 29.9988 83.2772 29.7452 83.2772 28.7816V13.1351C83.2772 12.1714 83.9833 11.8418 84.8723 11.8418C85.6306 11.8418 86.4151 12.0446 86.572 12.9576ZM86.7812 19.1452C86.7812 20.7681 87.4872 22.949 89.3699 22.949C91.5141 22.949 91.7756 20.5906 91.7756 18.6887C91.7756 16.7868 91.5141 14.4538 89.3699 14.4538C87.6179 14.4538 86.7812 16.4064 86.7812 18.004V19.1452ZM100.156 12.9576C100.836 12.2729 102.091 11.8164 103.294 11.8164C107.504 11.8164 109.046 14.6313 109.046 18.6887C109.046 22.7461 107.321 25.5863 103.294 25.5863C102.195 25.5863 101.097 25.282 100.365 24.5973V28.7816C100.365 29.7452 99.5022 29.9988 98.6131 29.9988C97.7502 29.9988 96.8612 29.7452 96.8612 28.7816V13.1351C96.8612 12.1714 97.5672 11.8418 98.4562 11.8418C99.2145 11.8418 99.999 12.0446 100.156 12.9576ZM100.365 19.1452C100.365 20.7681 101.071 22.949 102.954 22.949C105.098 22.949 105.359 20.5906 105.359 18.6887C105.359 16.7868 105.098 14.4538 102.954 14.4538C101.202 14.4538 100.365 16.4064 100.365 18.004V19.1452Z" fill="#84B400"/>
<path fill-rule="evenodd" clip-rule="evenodd" d="M111.091 16.4064C111.091 11.005 113 7.25183 118.543 7.25183C122.753 7.25183 124.662 9.71165 125.002 12.9069C125.08 13.693 124.244 14.1241 123.328 14.1241C122.335 14.1495 121.681 13.9466 121.472 13.0337C121.08 11.2078 120.4 10.2188 118.386 10.2188C115.092 10.2188 114.673 13.6423 114.673 16.4064C114.673 19.1452 115.144 22.594 118.386 22.5687C120.452 22.5687 121.08 21.25 121.524 19.7284C121.759 18.9677 122.335 18.6634 123.381 18.638C124.61 18.638 125.263 19.0691 125.054 20.1342C124.531 22.873 122.622 25.561 118.386 25.561C112.947 25.561 111.091 21.7825 111.091 16.4064ZM133.879 24.2423C132.99 24.9778 131.892 25.561 129.957 25.561C127.577 25.561 125.459 24.0141 125.459 21.4021C125.459 17.0404 129.904 16.5839 133.33 16.7868C133.356 15.037 132.336 14.5299 131.264 14.5299C129.826 14.5045 129.251 14.7834 128.022 15.2906C127.394 15.5442 126.845 15.5696 126.348 15.0117C125.851 14.4031 125.825 13.4394 126.61 12.983C128.126 12.0954 129.617 11.7911 131.316 11.7911C134.297 11.7911 136.834 13.1098 136.834 16.6347V22.4926C136.834 23.0505 136.886 23.583 136.938 24.1916C137.017 25.0792 136.468 25.3328 135.631 25.3581C134.716 25.3581 134.271 25.0538 133.879 24.2423ZM133.33 19.272C131.866 19.1705 128.911 19.1705 128.989 21.4021C129.015 22.2643 129.721 22.8222 130.82 22.8222C132.65 22.8222 133.565 21.1485 133.33 19.272ZM139.671 24.2931V14.8849H138.834C137.84 14.8849 137.579 14.2002 137.579 13.5155C137.579 12.8308 137.84 12.1461 138.834 12.1461H139.671V11.7657C139.671 8.95088 140.743 7.30255 144.482 7.30255C144.874 7.30255 145.319 7.32791 145.633 7.40398C146.339 7.5815 146.548 8.03796 146.548 8.90016C146.522 9.86381 146.234 10.2442 145.397 10.2188C145.24 10.1935 145.031 10.1935 144.874 10.1935C144.038 10.2188 143.175 10.4217 143.175 11.715V12.1461H144.325C145.319 12.1461 145.58 12.8308 145.58 13.5155C145.58 14.2002 145.319 14.8849 144.325 14.8849H143.175V24.2931C143.175 25.2567 142.312 25.5103 141.423 25.5103C140.56 25.5103 139.671 25.2567 139.671 24.2931ZM151.379 14.4284C149.862 14.4284 148.973 15.4681 148.79 17.0658H153.078C153.34 17.0658 153.575 16.9136 153.549 16.5079C153.444 15.1638 152.581 14.4284 151.379 14.4284ZM156.478 22.2897C155.798 24.4452 153.837 25.6371 151.326 25.6371C146.986 25.6117 145.181 22.3404 145.155 18.638C145.155 15.0624 146.803 11.8164 151.222 11.8164C154.804 11.8164 156.87 14.0227 156.844 17.2433C156.818 18.9423 156.059 19.4241 154.464 19.4241H148.685C148.738 21.0978 149.261 22.873 151.405 22.8476C152.503 22.8476 153.026 22.3658 153.497 21.5036C153.758 21.0218 154.412 20.8189 155.405 20.9203C156.556 21.0471 156.661 21.7825 156.478 22.2897Z" fill="#353B4C"/>
<path d="M2.83499 4.80363L1.46248 3.34891L1.46248 3.34891L2.83499 4.80363ZM21.5708 9.59535L23.2531 10.6769L24.4601 8.7995L22.462 7.80491L21.5708 9.59535ZM3.67649 8.98475L1.8858 9.8755L1.8858 9.8755L3.67649 8.98475ZM4.56022 24.762L2.65385 24.1572L2.65385 24.1572L4.56022 24.762ZM4.01634 29.2123L2.32854 30.2853L2.32854 30.2853L4.01634 29.2123ZM21.3904 22.7113L22.3343 24.4746L24.1928 23.4797L23.1017 21.6761L21.3904 22.7113ZM26.8704 12.4795L27.8875 10.7574L26.334 9.83983L25.2618 11.291L26.8704 12.4795ZM26.6099 19.7365L24.9218 20.8091L25.9746 22.4658L27.6507 21.4443L26.6099 19.7365ZM38.0597 19.6341L37.0066 21.3344L38.7187 22.3948L39.7672 20.6755L38.0597 19.6341ZM37.4478 12.1175L38.9694 10.8194L37.8354 9.49029L36.366 10.4354L37.4478 12.1175ZM33.0297 15.2932L31.7579 13.7496L31.7579 13.7496L33.0297 15.2932ZM31.334 15.2932L30.22 16.9542L30.22 16.9542L31.334 15.2932ZM43.2143 22.7132L41.5032 21.6777L40.4434 23.4289L42.2188 24.4478L43.2143 22.7132ZM42.6654 9.05227L41.7152 7.29243L39.7128 8.37362L41.0421 10.2206L42.6654 9.05227ZM61.2695 2.96055L59.7804 4.29563L59.7804 4.29563L61.2695 2.96055ZM60.0548 8.62666L58.2736 7.71717L58.2736 7.71717L60.0548 8.62666ZM59.4879 23.4913L61.3535 22.7705L61.3535 22.7705L59.4879 23.4913ZM60.2646 29.2123L61.6226 30.6805L61.6226 30.6805L60.2646 29.2123ZM4.2075 6.25836C4.00824 6.44636 3.87937 6.43595 4.06532 6.39326C4.22066 6.35761 4.49818 6.32274 4.92471 6.32443C5.77489 6.32778 6.99166 6.47417 8.54502 6.82437C11.6374 7.52154 15.8346 8.97405 20.6795 11.3858L22.462 7.80491C17.3855 5.2779 12.8849 3.7024 9.42473 2.92231C7.70182 2.53388 6.17867 2.32934 4.94048 2.32446C4.32282 2.32202 3.71905 2.36872 3.17039 2.49466C2.65234 2.61358 1.99676 2.84483 1.46248 3.34891L4.2075 6.25836ZM5.46718 8.09399C4.94886 7.05201 4.63501 6.40218 4.50354 5.92757C4.44361 5.71121 4.46962 5.68684 4.45757 5.77861C4.43827 5.92569 4.3548 6.11938 4.2075 6.25836L1.46248 3.34891C0.219846 4.52132 0.387349 6.05191 0.648709 6.99541C0.906303 7.9253 1.4346 8.96844 1.8858 9.8755L5.46718 8.09399ZM8.06801 16.9291C8.06801 13.2579 6.49261 10.1554 5.46718 8.09399L1.8858 9.8755C2.9547 12.0243 4.06801 14.3269 4.06801 16.9291H8.06801ZM6.46659 25.3668C7.12973 23.2764 8.06801 20.3556 8.06801 16.9291H4.06801C4.06801 19.6628 3.32531 22.0407 2.65385 24.1572L6.46659 25.3668ZM5.70414 28.1393C5.82677 28.3322 5.69613 28.3571 5.80172 27.7425C5.90152 27.1616 6.13133 26.4236 6.46659 25.3668L2.65385 24.1572C2.34765 25.1224 2.01601 26.1541 1.85948 27.0652C1.70875 27.9425 1.62689 29.1816 2.32854 30.2853L5.70414 28.1393ZM20.4466 20.948C16.4442 23.0904 12.3702 24.9775 9.23397 26.1728C7.6536 26.7752 6.38211 27.1745 5.50591 27.3562C5.05458 27.4498 4.81741 27.4618 4.74084 27.4583C4.51148 27.4478 5.23075 27.3947 5.70414 28.1393L2.32854 30.2853C2.99294 31.3304 4.14478 31.4352 4.55788 31.4541C5.12376 31.48 5.73891 31.393 6.31814 31.2728C7.50302 31.0271 9.00548 30.5406 10.6586 29.9106C13.9893 28.6411 18.2203 26.6767 22.3343 24.4746L20.4466 20.948ZM23.1017 21.6761C22.1528 20.1076 21.6059 18.2731 21.6059 16.2979H17.6059C17.6059 19.0249 18.364 21.5724 19.6792 23.7465L23.1017 21.6761ZM21.6059 16.2979C21.6059 14.2205 22.2109 12.298 23.2531 10.6769L19.8885 8.5138C18.445 10.759 17.6059 13.4287 17.6059 16.2979H21.6059ZM25.2618 11.291C24.2209 12.6999 23.6059 14.436 23.6059 16.2979H27.6059C27.6059 15.3285 27.9242 14.4189 28.479 13.6679L25.2618 11.291ZM23.6059 16.2979C23.6059 17.946 24.088 19.497 24.9218 20.8091L28.2979 18.6638C27.8558 17.9682 27.6059 17.1572 27.6059 16.2979H23.6059ZM31.0317 14.3298C29.5129 15.5088 27.6384 16.7675 25.569 18.0286L27.6507 21.4443C29.8015 20.1335 31.8101 18.7892 33.4844 17.4896L31.0317 14.3298ZM31.1518 17.576C33.152 18.9039 35.111 20.1604 37.0066 21.3344L39.1128 17.9338C37.2542 16.7828 35.3307 15.549 33.3642 14.2435L31.1518 17.576ZM39.7672 20.6755C40.5499 19.3921 40.9999 17.8901 40.9999 16.2979H36.9999C36.9999 17.1284 36.7665 17.9134 36.3522 18.5928L39.7672 20.6755ZM40.9999 16.2979C40.9999 14.2214 40.2354 12.3033 38.9694 10.8194L35.9263 13.4156C36.6047 14.2107 36.9999 15.2183 36.9999 16.2979H40.9999ZM36.366 10.4354C34.6743 11.5234 33.1021 12.642 31.7579 13.7496L34.3015 16.8367C35.4934 15.8546 36.9309 14.8279 38.5297 13.7996L36.366 10.4354ZM31.7579 13.7496C31.527 13.9399 31.2847 14.1334 31.0317 14.3298L33.4844 17.4896C33.7656 17.2713 34.0384 17.0535 34.3015 16.8367L31.7579 13.7496ZM30.22 16.9542C30.5316 17.1631 30.8422 17.3704 31.1518 17.576L33.3642 14.2435C33.0598 14.0414 32.7544 13.8376 32.4481 13.6322L30.22 16.9542ZM25.8534 14.2015C27.2777 15.0428 28.7364 15.9591 30.22 16.9542L32.4481 13.6322C30.9006 12.5943 29.3773 11.6373 27.8875 10.7574L25.8534 14.2015ZM42.9999 16.2979C42.9999 18.2738 42.4527 20.1088 41.5032 21.6777L44.9254 23.7486C46.2413 21.5741 46.9999 19.0258 46.9999 16.2979H42.9999ZM41.0421 10.2206C42.2744 11.9328 42.9999 14.0233 42.9999 16.2979H46.9999C46.9999 13.1541 45.9927 10.2515 44.2887 7.88395L41.0421 10.2206ZM62.7587 1.62547C62.1198 0.912825 61.2637 0.68524 60.6619 0.604635C60.0209 0.518776 59.3266 0.553876 58.6502 0.642105C57.2877 0.819829 55.6285 1.26485 53.8476 1.86851C50.2633 3.08345 45.8634 5.05255 41.7152 7.29243L43.6156 10.8121C47.6138 8.65323 51.8057 6.78418 55.1317 5.6568C56.8059 5.0893 58.1815 4.73712 59.1676 4.60851C59.6654 4.54357 59.974 4.54821 60.1309 4.56923C60.327 4.5955 60.0641 4.61213 59.7804 4.29563L62.7587 1.62547ZM61.8361 9.53615C62.4279 8.37697 63.103 7.07186 63.4493 5.88885C63.7919 4.71823 64.0022 3.01247 62.7587 1.62547L59.7804 4.29563C59.6062 4.10139 59.8313 4.0102 59.6103 4.76522C59.393 5.50784 58.926 6.4394 58.2736 7.71717L61.8361 9.53615ZM59.5843 16.0478C59.5843 14.0358 60.6336 11.8911 61.8361 9.53615L58.2736 7.71717C57.1797 9.8596 55.5843 12.8945 55.5843 16.0478H59.5843ZM61.3535 22.7705C60.4385 20.4024 59.5843 18.1228 59.5843 16.0478H55.5843C55.5843 19.0067 56.7708 22.0084 57.6223 24.2122L61.3535 22.7705ZM61.6226 30.6805C62.9816 29.4235 62.8327 27.6576 62.609 26.5612C62.3674 25.3771 61.8341 24.0144 61.3535 22.7705L57.6223 24.2122C58.147 25.57 58.5303 26.5792 58.6897 27.3609C58.8671 28.2303 58.6039 28.024 58.9065 27.744L61.6226 30.6805ZM42.2188 24.4478C46.7358 27.0401 50.7452 29.0462 53.8473 30.2438C55.3878 30.8385 56.7906 31.268 57.9638 31.4465C58.5498 31.5356 59.1598 31.5753 59.7421 31.5026C60.3139 31.4313 61.0295 31.2291 61.6226 30.6805L58.9065 27.744C59.1473 27.5214 59.3455 27.5211 59.2467 27.5334C59.1584 27.5444 58.9447 27.5497 58.5654 27.492C57.8082 27.3768 56.715 27.0632 55.2879 26.5123C52.4552 25.4187 48.6441 23.5234 44.2098 20.9785L42.2188 24.4478Z" fill="#353B4C"/>
<ellipse cx="32.3029" cy="16.2978" rx="9.69697" ry="9.53191" stroke="#84B400" stroke-width="4"/>
</svg>
