<svg width="157" height="32" viewBox="0 0 157 32" fill="none" xmlns="http://www.w3.org/2000/svg">
<path fill-rule="evenodd" clip-rule="evenodd" d="M76.7535 18.2576L75.4983 14.5552C75.1584 13.5408 75.0538 13.1351 74.8969 12.1207C74.74 13.1351 74.6354 13.5408 74.2955 14.5552L73.0404 18.2576H76.7535ZM72.0206 21.2246L71.0008 24.2677C70.6347 25.3328 69.9025 25.4595 69.0396 25.4595C68.1767 25.4595 67.1046 25.3074 67.4707 24.2677L72.8835 8.54511C73.1972 7.63219 74.034 7.27716 74.8969 7.27716C75.7598 7.27716 76.5966 7.63219 76.9104 8.54511L82.3231 24.2677C82.6892 25.3074 81.6171 25.4595 80.7542 25.4595C79.8913 25.4595 79.1591 25.3328 78.7931 24.2677L77.7733 21.2246H72.0206ZM86.572 12.9576C87.2518 12.2729 88.507 11.8164 89.7098 11.8164C93.9197 11.8164 95.4625 14.6313 95.4625 18.6887C95.4625 22.7461 93.7367 25.5863 89.7098 25.5863C88.6116 25.5863 87.5133 25.282 86.7812 24.5973V28.7816C86.7812 29.7452 85.9183 29.9988 85.0292 29.9988C84.1663 29.9988 83.2772 29.7452 83.2772 28.7816V13.1351C83.2772 12.1714 83.9833 11.8418 84.8723 11.8418C85.6306 11.8418 86.4151 12.0446 86.572 12.9576ZM86.7812 19.1452C86.7812 20.7681 87.4872 22.949 89.3699 22.949C91.5141 22.949 91.7756 20.5906 91.7756 18.6887C91.7756 16.7868 91.5141 14.4538 89.3699 14.4538C87.6179 14.4538 86.7812 16.4064 86.7812 18.004V19.1452ZM100.156 12.9576C100.836 12.2729 102.091 11.8164 103.294 11.8164C107.504 11.8164 109.046 14.6313 109.046 18.6887C109.046 22.7461 107.321 25.5863 103.294 25.5863C102.195 25.5863 101.097 25.282 100.365 24.5973V28.7816C100.365 29.7452 99.5022 29.9988 98.6131 29.9988C97.7502 29.9988 96.8612 29.7452 96.8612 28.7816V13.1351C96.8612 12.1714 97.5672 11.8418 98.4562 11.8418C99.2145 11.8418 99.999 12.0446 100.156 12.9576ZM100.365 19.1452C100.365 20.7681 101.071 22.949 102.954 22.949C105.098 22.949 105.359 20.5906 105.359 18.6887C105.359 16.7868 105.098 14.4538 102.954 14.4538C101.202 14.4538 100.365 16.4064 100.365 18.004V19.1452Z" fill="#84B400"/>
<path fill-rule="evenodd" clip-rule="evenodd" d="M111.091 16.4064C111.091 11.005 113 7.25183 118.543 7.25183C122.753 7.25183 124.662 9.71165 125.002 12.9069C125.08 13.693 124.244 14.1241 123.328 14.1241C122.335 14.1495 121.681 13.9466 121.472 13.0337C121.08 11.2078 120.4 10.2188 118.386 10.2188C115.092 10.2188 114.673 13.6423 114.673 16.4064C114.673 19.1452 115.144 22.594 118.386 22.5687C120.452 22.5687 121.08 21.25 121.524 19.7284C121.759 18.9677 122.335 18.6634 123.381 18.638C124.61 18.638 125.263 19.0691 125.054 20.1342C124.531 22.873 122.622 25.561 118.386 25.561C112.947 25.561 111.091 21.7825 111.091 16.4064ZM133.879 24.2423C132.99 24.9778 131.892 25.561 129.957 25.561C127.577 25.561 125.459 24.0141 125.459 21.4021C125.459 17.0404 129.904 16.5839 133.33 16.7868C133.356 15.037 132.336 14.5299 131.264 14.5299C129.826 14.5045 129.251 14.7834 128.022 15.2906C127.394 15.5442 126.845 15.5696 126.348 15.0117C125.851 14.4031 125.825 13.4394 126.61 12.983C128.126 12.0954 129.617 11.7911 131.316 11.7911C134.297 11.7911 136.834 13.1098 136.834 16.6347V22.4926C136.834 23.0505 136.886 23.583 136.938 24.1916C137.017 25.0792 136.468 25.3328 135.631 25.3581C134.716 25.3581 134.271 25.0538 133.879 24.2423ZM133.33 19.272C131.866 19.1705 128.911 19.1705 128.989 21.4021C129.015 22.2643 129.721 22.8222 130.82 22.8222C132.65 22.8222 133.565 21.1485 133.33 19.272ZM139.671 24.2931V14.8849H138.834C137.84 14.8849 137.579 14.2002 137.579 13.5155C137.579 12.8308 137.84 12.1461 138.834 12.1461H139.671V11.7657C139.671 8.95088 140.743 7.30255 144.482 7.30255C144.874 7.30255 145.319 7.32791 145.633 7.40398C146.339 7.5815 146.548 8.03796 146.548 8.90016C146.522 9.86381 146.234 10.2442 145.397 10.2188C145.24 10.1935 145.031 10.1935 144.874 10.1935C144.038 10.2188 143.175 10.4217 143.175 11.715V12.1461H144.325C145.319 12.1461 145.58 12.8308 145.58 13.5155C145.58 14.2002 145.319 14.8849 144.325 14.8849H143.175V24.2931C143.175 25.2567 142.312 25.5103 141.423 25.5103C140.56 25.5103 139.671 25.2567 139.671 24.2931ZM151.379 14.4284C149.862 14.4284 148.973 15.4681 148.79 17.0658H153.078C153.34 17.0658 153.575 16.9136 153.549 16.5079C153.444 15.1638 152.581 14.4284 151.379 14.4284ZM156.478 22.2897C155.798 24.4452 153.837 25.6371 151.326 25.6371C146.986 25.6117 145.181 22.3404 145.155 18.638C145.155 15.0624 146.803 11.8164 151.222 11.8164C154.804 11.8164 156.87 14.0227 156.844 17.2433C156.818 18.9423 156.059 19.4241 154.464 19.4241H148.685C148.738 21.0978 149.261 22.873 151.405 22.8476C152.503 22.8476 153.026 22.3658 153.497 21.5036C153.758 21.0218 154.412 20.8189 155.405 20.9203C156.556 21.0471 156.661 21.7825 156.478 22.2897Z" fill="#353B4C"/>
<path fill-rule="evenodd" clip-rule="evenodd" d="M3 3.01418C3 2.6886 13 8.00624 31.3342 15.2878C47.5 22.9825 60 29.4722 60 28.973C60 26.7642 60 21.8658 60 16.4928C60 11.1197 60 5.01101 60 3.01418C60 2.86059 43.5 10.5023 33.0298 15.2878C23.5 19.6436 2.99999 29.3039 3 28.973C3.00004 26.7642 3 23.0232 3 16.992C3 10.9607 3 5.01101 3 3.01418Z" fill="white"/>
<path d="M3 3.01418L5.5 3.01418L3 3.01418ZM31.3342 15.2878L32.4086 13.0305L32.3339 12.9949L32.257 12.9644L31.3342 15.2878ZM33.0298 15.2878L31.9906 13.0141L33.0298 15.2878ZM3 28.973L0.5 28.9729L3 28.973ZM3 16.992L0.5 16.992L3 16.992ZM5.5 3.01418C5.5 3.42731 5.39493 3.91815 5.09111 4.3805C4.79363 4.8332 4.40761 5.10366 4.091 5.25595C3.54027 5.52086 3.05231 5.50273 2.93493 5.4983C2.75065 5.49134 2.61171 5.46435 2.55374 5.45222C2.48468 5.43777 2.43459 5.42361 2.41186 5.41692C2.35073 5.39896 2.36097 5.39772 2.50641 5.45814C2.76316 5.5648 3.18235 5.75402 3.79887 6.03937C4.99146 6.59137 6.85657 7.47259 9.24908 8.5705C14.0697 10.7826 21.1943 13.9506 30.4114 17.6113L32.257 12.9644C23.1399 9.34345 16.0974 6.21182 11.3345 4.02614C8.9352 2.92514 7.15442 2.08289 5.89908 1.50185C5.29162 1.22069 4.78633 0.990991 4.42459 0.840716C4.26078 0.772667 4.03826 0.683452 3.82171 0.619807C3.75305 0.599629 3.47253 0.51503 3.12356 0.501855C2.9867 0.496688 2.48412 0.48052 1.92364 0.750118C1.60215 0.904757 1.21247 1.17825 0.912552 1.63465C0.606291 2.10071 0.5 2.59596 0.5 3.01418L5.5 3.01418ZM30.2597 17.5452C38.3259 21.3845 45.4739 24.9215 50.6291 27.448C53.1975 28.7068 55.2907 29.7243 56.7453 30.3967C57.4634 30.7286 58.0757 30.9997 58.5279 31.1749C58.7316 31.2539 59.014 31.3577 59.2948 31.4224C59.3883 31.4439 59.746 31.5283 60.1831 31.4898C60.3927 31.4714 60.9254 31.4025 61.4603 31.0138C62.1392 30.5206 62.5 29.7492 62.5 28.973H57.5C57.5 28.2124 57.8547 27.4531 58.5214 26.9688C59.0442 26.5889 59.5588 26.5255 59.7442 26.5091C59.9724 26.489 60.1485 26.5071 60.2269 26.5168C60.3178 26.5281 60.3845 26.5425 60.4166 26.5498C60.5064 26.5705 60.5044 26.5786 60.3347 26.5128C60.0402 26.3987 59.5496 26.1846 58.8432 25.8581C57.4489 25.2135 55.4068 24.2213 52.8295 22.9582C47.6932 20.441 40.5083 16.8858 32.4086 13.0305L30.2597 17.5452ZM62.5 28.973C62.5 26.6264 62.5 22.0036 62.5 16.4928L57.5 16.4928C57.5 22.0036 57.5 26.6264 57.5 28.973H62.5ZM62.5 16.4928C62.5 10.9819 62.5 5.14878 62.5 3.01418H57.5C57.5 5.14878 57.5 10.9819 57.5 16.4928L62.5 16.4928ZM62.5 3.01418C62.5 2.17791 62.0871 1.4368 61.463 0.986039C60.9727 0.631953 60.4925 0.554762 60.3107 0.531767C59.9249 0.482962 59.619 0.539445 59.5658 0.548565C59.376 0.58108 59.2255 0.629993 59.1899 0.641409C59.0761 0.67783 58.966 0.72043 58.8944 0.748668C58.7326 0.81253 58.5204 0.902018 58.2797 1.00593C57.7897 1.21745 57.09 1.52851 56.2325 1.91431C54.5136 2.6877 52.1171 3.78116 49.4 5.026C43.955 7.52053 37.2279 10.6203 31.9906 13.0141L34.0691 17.5616C39.3019 15.1698 46.0599 12.056 51.4825 9.57166C54.1991 8.32708 56.582 7.23982 58.284 6.47404C59.1371 6.09025 59.8081 5.79212 60.2614 5.59644C60.4923 5.49675 60.6449 5.43314 60.7299 5.3996C60.7817 5.37914 60.7655 5.38696 60.7148 5.40318C60.7107 5.40449 60.584 5.44695 60.4102 5.47674C60.365 5.48449 60.0651 5.54054 59.6833 5.49224C59.5035 5.4695 59.0248 5.3928 58.5355 5.03943C57.9124 4.5894 57.5 3.84925 57.5 3.01418H62.5ZM31.9906 13.0141C27.2211 15.1941 19.692 18.7081 13.3927 21.6184C10.235 23.0773 7.38646 24.3845 5.3304 25.3051C4.29881 25.767 3.48594 26.1229 2.93905 26.3505C2.65776 26.4675 2.48619 26.5341 2.40289 26.5634C2.3434 26.5843 2.40172 26.5604 2.51544 26.535C2.53426 26.5308 2.77863 26.4713 3.10336 26.4828C3.23717 26.4875 3.70178 26.5087 4.21176 26.7902C4.90352 27.172 5.50002 27.9535 5.5 28.973L0.5 28.9729C0.499982 29.9977 1.09898 30.7831 1.79572 31.1677C2.31067 31.4519 2.78272 31.4746 2.92643 31.4797C3.27094 31.4919 3.54485 31.4283 3.60276 31.4154C3.79463 31.3726 3.96923 31.3127 4.06221 31.28C4.28386 31.202 4.56202 31.0907 4.85989 30.9668C5.47132 30.7124 6.33446 30.3338 7.37365 29.8685C9.45915 28.9348 12.3312 27.6167 15.4898 26.1574C21.8229 23.2314 29.3087 19.7374 34.0691 17.5616L31.9906 13.0141ZM5.5 28.973C5.50004 26.7642 5.5 23.0232 5.5 16.992L0.5 16.992C0.5 23.0233 0.500039 26.7642 0.5 28.9729L5.5 28.973ZM5.5 16.992C5.5 10.9449 5.5 5.02684 5.5 3.01418H0.5C0.5 5.02684 0.5 10.9449 0.5 16.992L5.5 16.992Z" fill="#353B4C"/>
<ellipse cx="32.3029" cy="16.2978" rx="9.69697" ry="9.53191" fill="white" stroke="#84B400" stroke-width="4"/>
</svg>
