<svg width="12" height="15" viewBox="0 0 12 15" fill="none" xmlns="http://www.w3.org/2000/svg">
<path fill-rule="evenodd" clip-rule="evenodd" d="M6.00017 0C7.99649 0 9.79107 0.950713 10.9234 2.60804C12.0502 4.25698 12.3103 6.34459 11.6194 8.19231C11.4365 8.69194 11.1436 9.18076 10.7502 9.64195L6.395 14.8154C6.29647 14.9325 6.15212 15 6.00017 15C5.84823 15 5.70387 14.9325 5.60535 14.8154L1.24897 9.64055C0.857242 9.18199 0.564041 8.69265 0.379592 8.18897C-0.309998 6.34459 -0.0498229 4.25698 1.07695 2.60804C2.20928 0.950713 4.00385 0 6.00017 0ZM9.96413 8.95819C10.2769 8.5916 10.5071 8.21048 10.6482 7.82499C11.2199 6.29616 11.0033 4.57011 10.0701 3.20455C9.13416 1.8346 7.65074 1.04895 6.00017 1.04895C4.34958 1.04895 2.86599 1.83463 1.93007 3.20455C0.997078 4.57011 0.780647 6.29616 1.35094 7.8215C1.49338 8.21068 1.72366 8.59178 2.03622 8.95805L6.00017 13.6666L9.9617 8.96101C9.9624 8.95995 9.96326 8.95907 9.96413 8.95819Z" fill="#E1E1E1"/>
<circle cx="6" cy="6" r="3" fill="#D8D8D8"/>
</svg>
