<svg width="13" height="13" viewBox="0 0 13 13" fill="none" xmlns="http://www.w3.org/2000/svg">
<path fill-rule="evenodd" clip-rule="evenodd" d="M6.50163 0H6.49837C2.91444 0 0 2.91525 0 6.5C0 7.92188 0.45825 9.23975 1.23744 10.3098L0.427375 12.7246L2.92581 11.9259C3.95362 12.6067 5.17969 13 6.50163 13C10.0856 13 13 10.0839 13 6.5C13 2.91606 10.0856 0 6.50163 0Z" fill="#84B400"/>
<path fill-rule="evenodd" clip-rule="evenodd" d="M10.857 9.0617C10.694 9.49422 10.0472 9.85294 9.53132 9.9577C9.17837 10.0283 8.71733 10.0847 7.16535 9.47994C5.1802 8.70695 3.9018 6.81098 3.80217 6.68797C3.70675 6.56496 3 5.68404 3 4.77296C3 3.86188 3.49228 3.41824 3.69071 3.22777C3.85367 3.07143 4.12303 3 4.38141 3C4.46501 3 4.54016 3.00397 4.60771 3.00714C4.80614 3.01508 4.90578 3.02619 5.03666 3.32062C5.19962 3.68966 5.59649 4.60074 5.64377 4.69439C5.6919 4.78803 5.74003 4.91501 5.67248 5.03803C5.60915 5.16501 5.55342 5.22135 5.45378 5.32929C5.35415 5.43722 5.25958 5.51976 5.15994 5.63562C5.06874 5.73641 4.96573 5.84435 5.08057 6.03085C5.1954 6.21338 5.59226 6.82209 6.17658 7.31096C6.93061 7.94189 7.54195 8.14347 7.76065 8.22919C7.92361 8.29268 8.11782 8.2776 8.23688 8.15855C8.38802 8.00538 8.57463 7.75142 8.76462 7.50143C8.89972 7.32207 9.07029 7.29985 9.2493 7.36334C9.43168 7.42286 10.3968 7.87126 10.5952 7.96412C10.7937 8.05776 10.9246 8.10221 10.9727 8.18078C11.02 8.25934 11.02 8.62838 10.857 9.0617Z" fill="white"/>
</svg>
