<svg width="258" height="129" fill="none" xmlns="http://www.w3.org/2000/svg"><path clip-rule="evenodd" d="M1.62 15.748c7.604-7.171 60.743 3.33 123.611 45.48s116.874 68.308 125.481 60.349c8.608-7.958-11.625-33.744-11.625-57.077s24.902-46.8 15.984-56.743c-8.918-9.943-87.034 24.271-122.486 53.47-35.451 29.2-120.717 68.407-125.84 60.35-5.125-8.056 8.898-27.065 8.898-53.256S-5.983 22.92 1.62 15.748z" stroke="#F7F7F7"/><path opacity=".539" clip-rule="evenodd" d="M2.62 20.748c7.604-7.171 60.743 3.33 123.611 45.48s116.874 68.308 125.481 60.349c8.608-7.958-11.625-33.744-11.625-57.077s24.902-46.8 15.984-56.743c-8.918-9.943-87.034 24.271-122.486 53.47-35.451 29.2-120.717 68.407-125.84 60.35-5.125-8.056 8.898-27.065 8.898-53.256S-4.983 27.92 2.62 20.748z" stroke="#F7F7F7"/><path fill-rule="evenodd" clip-rule="evenodd" d="M50.374 2.248c1.753-1.654 14.004.768 28.499 10.49 14.494 9.721 26.946 15.755 28.93 13.919 1.985-1.835-2.68-7.783-2.68-13.165 0-5.381 5.741-10.793 3.685-13.087-2.056-2.293-20.066 5.598-28.24 12.333-8.173 6.735-27.832 15.777-29.013 13.919-1.181-1.858 2.052-6.242 2.052-12.283 0-6.041-4.986-10.472-3.233-12.126z" fill="url(#paint0_linear)"/><circle cx="80" cy="13" r="11" fill="#353B4C"/><path fill-rule="evenodd" clip-rule="evenodd" d="M81.944 19h-2.998v-8.66L76 11.192v-2.25L81.67 7h.274v12z" fill="#28CDC2"/><defs><linearGradient id="paint0_linear" x1="59.036" y1=".377" x2="57.476" y2="22.895" gradientUnits="userSpaceOnUse"><stop stop-color="#28CDC2"/><stop offset=".486" stop-color="#01B464"/><stop offset="1" stop-color="#00DF99"/></linearGradient></defs></svg>