<svg width="73" height="15" fill="none" xmlns="http://www.w3.org/2000/svg"><path fill-rule="evenodd" clip-rule="evenodd" d="M35.552 8.384l-.586-1.77a5.774 5.774 0 01-.28-1.165c-.074.485-.123.68-.281 1.164l-.586 1.771h1.733zm-2.209 1.42l-.476 1.454c-.17.51-.512.57-.915.57s-.903-.072-.732-.57l2.526-7.519c.146-.437.537-.606.94-.606.402 0 .792.17.939.606l2.526 7.52c.17.497-.33.57-.732.57-.403 0-.745-.061-.915-.57l-.476-1.456h-2.685zm6.79-3.955c.318-.327.904-.545 1.465-.545 1.965 0 2.685 1.346 2.685 3.286s-.806 3.3-2.685 3.3c-.513 0-1.025-.146-1.367-.474v2.001c0 .461-.402.582-.817.582-.403 0-.818-.12-.818-.582V5.934c0-.46.33-.618.745-.618.353 0 .72.097.793.533zm.098 2.96c0 .776.33 1.819 1.208 1.819 1 0 1.123-1.128 1.123-2.038 0-.91-.122-2.025-1.123-2.025-.817 0-1.208.934-1.208 1.698v.546zm6.242-2.96c.317-.327.903-.545 1.464-.545 1.965 0 2.685 1.346 2.685 3.286s-.806 3.3-2.685 3.3c-.512 0-1.025-.146-1.367-.474v2.001c0 .461-.402.582-.817.582-.403 0-.818-.12-.818-.582V5.934c0-.46.33-.618.745-.618.353 0 .72.097.793.533zm.097 2.96c0 .776.33 1.819 1.209 1.819 1 0 1.122-1.128 1.122-2.038 0-.91-.122-2.025-1.123-2.025-.817 0-1.208.934-1.208 1.698v.546z" fill="#DEDEDE"/><path fill-rule="evenodd" clip-rule="evenodd" d="M51.576 7.499c0-2.584.89-4.379 3.477-4.379 1.965 0 2.856 1.177 3.015 2.705.036.376-.354.582-.782.582-.463.012-.768-.085-.866-.521-.183-.874-.5-1.347-1.44-1.347-1.537 0-1.732 1.638-1.732 2.96 0 1.31.22 2.959 1.732 2.947.964 0 1.257-.63 1.465-1.358.11-.364.378-.51.866-.522.574 0 .879.206.78.716-.243 1.31-1.134 2.595-3.11 2.595-2.539 0-3.405-1.807-3.405-4.378zm10.634 3.747c-.415.352-.927.631-1.83.631-1.11 0-2.1-.74-2.1-1.989 0-2.086 2.075-2.304 3.674-2.207.012-.837-.464-1.08-.964-1.08-.671-.012-.94.122-1.513.364-.293.121-.55.133-.781-.133-.232-.291-.244-.752.122-.97.708-.425 1.403-.57 2.196-.57 1.391 0 2.575.63 2.575 2.316v2.801c0 .267.025.522.049.813.037.425-.22.546-.61.558-.427 0-.635-.146-.818-.534zm-.256-2.377c-.683-.048-2.062-.048-2.026 1.019.013.412.342.68.855.68.854 0 1.28-.801 1.17-1.699zm2.959 2.402v-4.5h-.39c-.464 0-.586-.327-.586-.655 0-.327.122-.655.585-.655h.391V5.28c0-1.346.5-2.134 2.245-2.134.183 0 .39.012.537.048.33.085.427.303.427.716-.012.46-.146.643-.537.63-.073-.012-.17-.012-.244-.012-.39.012-.793.11-.793.728v.206h.537c.464 0 .586.328.586.655 0 .328-.122.655-.586.655h-.537v4.5c0 .46-.403.582-.817.582-.403 0-.818-.121-.818-.582zm5.464-4.718c-.708 0-1.123.497-1.208 1.261h2c.123 0 .233-.073.22-.267-.048-.643-.451-.994-1.012-.994zm2.38 3.76c-.318 1.03-1.233 1.6-2.405 1.6-2.025-.012-2.867-1.576-2.88-3.347 0-1.71.77-3.262 2.831-3.262 1.672 0 2.636 1.055 2.624 2.595-.012.813-.366 1.043-1.11 1.043H69.12c.024.8.268 1.65 1.269 1.637.512 0 .756-.23.976-.643.122-.23.427-.327.89-.278.538.06.587.412.501.655z" fill="#DFDFDF"/><path d="M16.201 6.614l.676-.738-.606-.555-.662.487.592.806zm-.72.558l.633.773-.634-.773zm-.792 0l-.555.832.555-.832zm-.705-.46l.54-.843-.713-.456-.568.627.741.671zm-.146 1.663l-.84.541.55.856.846-.566-.556-.831zm2.632-.04l-.539.842.868.555.529-.884-.858-.513zM8.62 11.35l.446.896.96-.477-.543-.925-.863.506zm.05-7.509l.856.518.589-.975-1.043-.458-.402.915zm-7.28-1.54l-.685-.73.685.73zm.392 1.94l-.894.448.894-.447zm.413 7.326l.953.304-.953-.304zm-.254 2.066l-.843.539.843-.539zm19.695-2.238l-.86-.512-.534.897.92.495.474-.88zm-.22-7.86l-.44-.899-1.03.506.641.951.83-.559zm7.243-2.09l.743-.67-.743.67zm-.567 2.63l.89.457-.89-.456zm-.264 6.902l-.933.362.933-.362zm.362 2.656l.677.736-.677-.736zM15.61 5.808c-.268.196-.523.393-.763.59l1.268 1.547c.21-.172.437-.348.679-.526l-1.185-1.611zm-.763.59c-.108.088-.22.178-.338.269l1.223 1.583c.131-.102.26-.204.383-.305l-1.268-1.547zm-.713 1.606l.435.288 1.102-1.668-.427-.284-1.11 1.664zm-.689-.45c.229.145.458.295.69.45l1.11-1.664a44.995 44.995 0 00-.722-.471l-1.078 1.684zm-.202-1.514c-.39.43-.627.997-.627 1.598h2c0-.072.03-.169.11-.255L13.242 6.04zm-.627 1.598c0 .463.14.905.381 1.278l1.682-1.083a.367.367 0 01-.063-.195h-2zm1.893-.971c-.366.283-.779.577-1.227.877l1.112 1.662c.478-.32.928-.64 1.338-.956l-1.223-1.583zm.06 1.625c.46.304.914.599 1.362.885l1.077-1.685c-.44-.281-.886-.57-1.336-.868l-1.103 1.668zm2.759.556a2.36 2.36 0 00.339-1.21h-2a.361.361 0 01-.055.183l1.716 1.027zm.339-1.21c0-.679-.303-1.315-.79-1.762l-1.351 1.475c.1.092.14.205.14.287h2zm-8.184 3.207a6.305 6.305 0 01-.867-3.207h-2c0 1.545.417 2.984 1.142 4.22l1.725-1.013zm-.867-3.207c0-1.209.334-2.325.91-3.278L7.814 3.325a8.304 8.304 0 00-1.198 4.313h2zM2.074 3.031c-.096.09-.166.097-.113.083a1.37 1.37 0 01.288-.033c.307-.01.757.026 1.347.137 1.173.22 2.78.709 4.672 1.54l.804-1.831c-1.998-.878-3.752-1.42-5.107-1.675-.675-.126-1.28-.187-1.783-.17a3.305 3.305 0 00-.737.1c-.224.06-.504.17-.74.39l1.37 1.459zm.603.765c-.115-.23-.212-.424-.292-.6a2.885 2.885 0 01-.153-.393c-.026-.095-.012-.095-.02-.039a.467.467 0 01-.138.267L.705 1.573c-.61.572-.524 1.319-.4 1.767.123.44.374.932.583 1.35l1.789-.894zM3.898 7.93c0-1.724-.744-3.18-1.221-4.135l-1.79.894c.5 1 1.011 2.054 1.011 3.241h2zm-.75 3.94c.309-.97.75-2.336.75-3.94h-2c0 1.256-.342 2.35-.656 3.333l1.906.608zm-.364 1.225c.072.113.007.149.056-.131.045-.264.15-.6.308-1.093l-1.906-.608c-.142.447-.299.931-.373 1.36-.071.413-.113 1.012.23 1.549l1.685-1.077zm5.391-2.64c-1.626.809-3.178 1.482-4.345 1.891-.59.207-1.042.331-1.34.38-.155.026-.212.021-.204.022.007 0 .068.007.154.046.092.04.234.13.344.3l-1.686 1.078c.294.459.777.544.98.565.25.026.508 0 .737-.037.468-.077 1.048-.246 1.676-.466 1.27-.445 2.903-1.157 4.575-1.988l-.89-1.791zm13.492-2.818c0 1.195-.326 2.3-.89 3.246l1.718 1.024a8.304 8.304 0 001.172-4.27h-2zm-1.08-3.544a6.304 6.304 0 011.08 3.544h2a8.304 8.304 0 00-1.421-4.662l-1.659 1.118zM29.402.777C29.125.469 28.768.35 28.505.3a3.137 3.137 0 00-.832-.029c-.544.046-1.192.194-1.88.401-1.386.418-3.104 1.125-4.817 1.964l.881 1.796c1.65-.81 3.263-1.468 4.512-1.845.63-.19 1.127-.294 1.47-.322.172-.015.264-.006.295 0 .041.008-.086-.004-.218-.15l1.486-1.34zm-.42 3.756c.275-.536.594-1.149.758-1.706.162-.552.268-1.378-.338-2.05l-1.486 1.338c-.107-.119.006-.195-.095.147-.099.337-.313.763-.618 1.358l1.779.913zm-1.043 2.99c0-.913.48-1.892 1.043-2.99l-1.78-.913c-.508.99-1.263 2.416-1.263 3.902h2zm.82 3.093c-.427-1.103-.82-2.147-.82-3.094h-2c0 1.39.56 2.798.956 3.818l1.865-.724zm.108 3.754c.664-.611.588-1.468.482-1.982-.114-.557-.366-1.197-.59-1.772l-1.864.724c.246.633.422 1.095.495 1.45.082.399-.048.266.123.108l1.354 1.472zm-7.706-2.094c1.752.945 3.299 1.667 4.505 2.085.598.207 1.157.356 1.637.406.408.043 1.075.053 1.564-.397l-1.354-1.472c.198-.182.333-.085-.001-.12-.262-.027-.656-.121-1.19-.307-1.061-.367-2.5-1.033-4.212-1.955l-.949 1.76z" fill="#DEDEDE"/><ellipse cx="15.142" cy="7.638" rx="4.525" ry="4.426" stroke="#E3E3E3" stroke-width="2"/></svg>