<svg width="56" height="39" fill="none" xmlns="http://www.w3.org/2000/svg"><path fill-rule="evenodd" clip-rule="evenodd" d="M23.304 4.254c1.806-1.873 4.32-3.034 7.101-3.034 3.697 0 6.922 2.05 8.64 5.096a11.99 11.99 0 014.882-1.033C50.595 5.283 56 10.708 56 17.4c0 6.692-5.405 12.117-12.073 12.117a12.023 12.023 0 01-2.378-.235 8.83 8.83 0 01-7.703 4.498 8.82 8.82 0 01-3.86-.884A10.072 10.072 0 0120.716 39a10.07 10.07 0 01-9.448-6.558 9.28 9.28 0 01-1.921.2C4.185 32.642 0 28.435 0 23.245a9.403 9.403 0 014.674-8.14 10.711 10.711 0 01-.895-4.298C3.779 4.838 8.649 0 14.656 0a10.88 10.88 0 018.648 4.254z" fill="#E6E6E6"/><path fill-rule="evenodd" clip-rule="evenodd" d="M8.028 20.326c-.017-.018-.044-.048-.015-.134l.225-.714c.036-.123.118-.083.15-.06l.075.055c.033.024.068.05.115.08.664.48 1.28.485 1.473.485.498 0 .806-.301.806-.705v-.022c0-.442-.474-.608-1.023-.8h-.002l-.122-.043c-.755-.247-1.561-.6-1.561-1.69v-.022c0-1.034.73-1.755 1.777-1.755l.115-.001c.615 0 1.209.204 1.639.502.039.027.077.078.055.147-.02.063-.21.649-.233.714-.04.122-.15.04-.15.04a2.984 2.984 0 00-1.454-.423c-.444 0-.73.268-.73.632v.023c0 .425.49.606 1.056.816h.001l.098.037c.752.271 1.553.646 1.553 1.68v.02c0 1.118-.71 1.812-1.853 1.812-.562 0-1.1-.1-1.668-.445l-.067-.043c-.084-.054-.168-.107-.252-.176a.07.07 0 00-.008-.01zm16.746 0c-.016-.018-.044-.048-.015-.134l.226-.714c.033-.117.13-.075.15-.06l.039.03c.044.032.087.064.15.106.665.48 1.28.484 1.473.484.498 0 .807-.301.807-.705v-.022c0-.441-.474-.607-1.023-.8h-.003l-.121-.043c-.756-.247-1.562-.6-1.562-1.69v-.022c0-1.034.73-1.755 1.778-1.755l.114-.001c.615 0 1.21.204 1.639.502.039.027.077.078.056.147l-.233.714c-.04.122-.151.04-.151.04a2.984 2.984 0 00-1.454-.423c-.443 0-.73.268-.73.632v.023c0 .425.49.606 1.056.816h.001l.098.037c.752.271 1.554.646 1.554 1.68v.02c0 1.118-.71 1.812-1.854 1.812-.562 0-1.099-.1-1.668-.445a10.645 10.645 0 00-.067-.043c-.084-.054-.168-.107-.251-.176l-.009-.01zm11.417-2.323c0 .632-.103 1.13-.306 1.481-.201.348-.505.517-.93.517-.425 0-.727-.168-.925-.517-.2-.35-.302-.849-.302-1.48s.102-1.128.302-1.476c.198-.344.5-.511.925-.511.425 0 .729.167.93.511.203.348.306.845.306 1.476zm.52-2.116c.195.265.342.584.435.946.094.36.14.754.14 1.17 0 .417-.046.811-.14 1.171a2.76 2.76 0 01-.434.946c-.195.266-.442.48-.734.63a2.205 2.205 0 01-1.023.229c-.387 0-.731-.077-1.024-.228a2.1 2.1 0 01-.733-.63 2.779 2.779 0 01-.435-.947 4.683 4.683 0 01-.14-1.17c0-.418.047-.812.14-1.171.094-.36.24-.68.434-.946a2.18 2.18 0 01.734-.636 2.162 2.162 0 011.024-.234c.387 0 .732.079 1.023.234.293.156.54.37.734.636zm8.276 3.946c-.031-.106-.121-.066-.121-.066-.14.06-.287.117-.444.145-.16.028-.335.042-.524.042-.462 0-.83-.157-1.092-.466-.264-.31-.411-.811-.41-1.49.002-.616.132-1.08.366-1.433.233-.352.587-.532 1.06-.532a2.8 2.8 0 011.009.165s.075.037.111-.076l.076-.238c.05-.159.098-.31.158-.506.026-.083-.036-.118-.058-.128a3.358 3.358 0 00-.638-.183 4.205 4.205 0 00-.716-.056c-.401 0-.759.079-1.065.234a2.242 2.242 0 00-.768.636 2.821 2.821 0 00-.465.945 4.27 4.27 0 00-.156 1.173c0 .903.214 1.633.636 2.168.422.536 1.057.81 1.885.81.49 0 .991-.114 1.352-.276 0 0 .069-.038.039-.13l-.235-.738zm1.932-3.304c-.13.227-.216.519-.261.87h2.305c-.023-.338-.08-.643-.214-.87-.201-.345-.482-.535-.906-.535a.998.998 0 00-.924.535zm2.954.098a2.397 2.397 0 00-.414-.862c-.208-.256-.411-.434-.613-.534a2.116 2.116 0 00-.926-.214c-.404 0-.77.077-1.067.237a2.18 2.18 0 00-.745.648 2.8 2.8 0 00-.437.957 4.655 4.655 0 00-.143 1.176c0 .425.05.821.147 1.177.099.36.256.675.47.937.211.264.484.47.812.614.325.144.72.218 1.173.217.933-.004 1.425-.24 1.628-.369.035-.022.07-.062.027-.176l-.212-.675c-.031-.101-.121-.064-.121-.064l-.063.027c-.23.1-.564.247-1.264.245-.501 0-.873-.17-1.106-.433-.239-.27-.355-.667-.376-1.227l3.232.004s.085-.002.094-.096l.002-.017c.014-.12.095-.796-.098-1.572zm-28.84-.098c-.131.227-.215.519-.262.87h2.306c-.023-.338-.081-.643-.214-.87-.202-.345-.482-.535-.906-.535a.999.999 0 00-.924.535zm2.953.098a2.397 2.397 0 00-.413-.862c-.209-.256-.412-.434-.614-.534a2.115 2.115 0 00-.926-.214c-.403 0-.77.077-1.067.237a2.18 2.18 0 00-.744.648 2.8 2.8 0 00-.438.957 4.702 4.702 0 00-.142 1.176c0 .425.05.821.147 1.177.098.36.256.675.469.937.212.264.485.47.812.614.325.144.72.218 1.174.217.933-.004 1.425-.24 1.627-.369.036-.022.07-.062.027-.176l-.21-.675c-.033-.101-.122-.064-.122-.064l-.064.027c-.229.1-.563.247-1.264.245-.5 0-.872-.17-1.105-.433-.239-.27-.356-.667-.377-1.227l3.233.004s.085-.002.094-.096l.002-.018a4.494 4.494 0 00-.1-1.57zm-10.388 2.967c.043.075.06.103.187.219-.003-.001.29.26.947.215.463-.032.873-.132.873-.132V18.22s-.414-.078-.877-.085c-.66-.01-.94.267-.938.266-.194.157-.288.39-.288.714 0 .205.033.366.096.48zm1.473-2.372a6.282 6.282 0 00-.505-.017c-.277 0-.545.04-.796.117-.252.077-.48.197-.675.357a1.727 1.727 0 00-.468.608 1.973 1.973 0 00-.173.85c0 .326.05.61.148.841.098.233.24.427.422.577.18.15.401.259.658.325.254.066.541.1.856.1a5.1 5.1 0 00.982-.094c.317-.061.706-.151.814-.18.076-.02.151-.042.226-.065.08-.023.074-.12.074-.12l-.001-3.372c0-.74-.174-1.288-.514-1.628-.34-.339-.84-.51-1.485-.51-.242 0-.632.038-.866.092 0 0-.706.156-.997.415 0 0-.063.045-.029.146l.23.702c.028.09.105.06.105.06s.025-.011.053-.03c.622-.386 1.409-.375 1.409-.375.35 0 .618.08.799.239.176.154.266.387.266.878v.156a10.287 10.287 0 00-.533-.072zm26.022-2.032c.021.01.073.049.048.132-.03.101-.187.606-.243.774-.02.064-.056.108-.117.1 0 0-.186-.05-.355-.05-.118 0-.284.017-.434.07a.978.978 0 00-.4.273 1.442 1.442 0 00-.283.543c-.071.231-.107.6-.107.968v2.747c0 .062-.043.112-.097.112h-.85c-.054 0-.098-.05-.098-.112v-5.499c0-.063.039-.112.093-.112h.828c.054 0 .093.05.093.112v.449c.124-.19.346-.356.547-.46.202-.103.427-.181.833-.153.212.016.487.082.542.106z" fill="#fff"/><path fill-rule="evenodd" clip-rule="evenodd" d="M32.629 14.032c.118.021.208.042.308.072.021.008.082.037.057.107l-.238.641c-.02.048-.034.078-.136.047a1.845 1.845 0 00-.16-.038 1.34 1.34 0 00-.255-.025c-.123 0-.236.015-.335.047a.658.658 0 00-.262.16.901.901 0 00-.218.325 3.96 3.96 0 00-.16.66l-.005.03h.997c.084 0 .11.038.102.099l-.116.635c-.018.093-.104.09-.104.09h-1.027l-.703 3.897a5.721 5.721 0 01-.274 1.026 2.01 2.01 0 01-.405.685 1.448 1.448 0 01-.576.394c-.218.076-.48.116-.766.116a1.92 1.92 0 01-.457-.042 2.579 2.579 0 01-.285-.082c-.04-.014-.07-.062-.048-.122l.231-.622c.032-.079.113-.049.113-.049.056.024.095.04.168.054.075.015.175.027.25.027.136 0 .26-.017.367-.052a.578.578 0 00.285-.216 1.53 1.53 0 00.218-.435c.07-.192.133-.445.187-.753l.7-3.826h-.69c-.083 0-.11-.039-.101-.099l.116-.636c.018-.092.104-.089.104-.089h.708l.038-.207c.106-.614.317-1.08.627-1.387.312-.308.757-.464 1.32-.464.163 0 .305.01.425.032zm-13.713 6.776a.09.09 0 00.09-.092V14.19a.09.09 0 00-.09-.093h-.827c-.052 0-.089.042-.089.093v6.525c0 .051.037.092.089.092h.827z" fill="#fff"/></svg>