<svg width="13" height="13" fill="none" xmlns="http://www.w3.org/2000/svg"><path fill-rule="evenodd" clip-rule="evenodd" d="M6.502 0h-.004A6.506 6.506 0 000 6.5c0 1.422.458 2.74 1.237 3.81l-.81 2.415 2.499-.8A6.444 6.444 0 006.502 13 6.506 6.506 0 0013 6.5C13 2.916 10.086 0 6.502 0z" fill="#84B400"/><path fill-rule="evenodd" clip-rule="evenodd" d="M10.857 9.062c-.163.432-.81.79-1.326.896-.353.07-.814.127-2.366-.478-1.985-.773-3.263-2.67-3.363-2.792C3.707 6.565 3 5.684 3 4.773s.492-1.355.69-1.545C3.855 3.07 4.124 3 4.382 3c.084 0 .16.004.227.007.198.008.298.02.429.314.163.369.56 1.28.607 1.373.048.094.096.221.028.344-.063.127-.119.183-.218.291-.1.108-.194.19-.294.307-.091.1-.194.208-.08.395.115.182.512.791 1.097 1.28.754.63 1.365.832 1.584.918.163.064.357.049.476-.07.151-.154.338-.408.528-.658.135-.179.305-.201.484-.138.183.06 1.148.508 1.346.601.199.094.33.138.378.217.047.078.047.447-.116.88z" fill="#fff"/></svg>