<svg width="84" height="24" viewBox="0 0 84 24" fill="none" xmlns="http://www.w3.org/2000/svg">
<path fill-rule="evenodd" clip-rule="evenodd" d="M80.6961 23.351H3.15628C1.58489 23.351 0.311523 22.1308 0.311523 20.625V3.02308C0.311523 1.51731 1.58489 0.297119 3.15628 0.297119H80.6961C82.2675 0.297119 83.5409 1.51731 83.5409 3.02308V20.625C83.5409 22.1308 82.2675 23.351 80.6961 23.351Z" fill="black"/>
<path fill-rule="evenodd" clip-rule="evenodd" d="M27.5671 7.82595L27.9163 6.72402H29.2032L29.5705 7.82595H30.3637L29.0467 3.94037H28.1029L26.8025 7.82595H27.5671ZM28.7577 5.23123L29.0768 6.18893H28.0367L28.3498 5.23123C28.3991 5.07043 28.444 4.89071 28.4866 4.72039C28.5051 4.64629 28.5232 4.57397 28.541 4.50575H28.553C28.5639 4.54652 28.575 4.58856 28.5863 4.63149C28.6376 4.82549 28.6936 5.03755 28.7577 5.23123Z" fill="white"/>
<path fill-rule="evenodd" clip-rule="evenodd" d="M31.4699 5.01923L31.9456 6.44134C32.0299 6.68942 32.0886 6.91442 32.1427 7.14519H32.1608C32.215 6.91442 32.2812 6.69519 32.3595 6.44134L32.8291 5.01923H33.6043L32.4859 7.82596H31.7589L30.6692 5.01923" fill="white"/>
<path fill-rule="evenodd" clip-rule="evenodd" d="M36.6055 7.8245C36.5694 7.65286 36.5573 7.40479 36.5573 7.15094V6.14277C36.5573 5.52546 36.2864 4.95575 35.3487 4.95575C34.8851 4.95575 34.5058 5.07546 34.2891 5.20238L34.4335 5.66392C34.6322 5.54277 34.9333 5.45623 35.2223 5.45623C35.74 5.45623 35.8168 5.762 35.8168 5.94661V5.99277C34.7346 5.987 34.0798 6.34902 34.0798 7.05287C34.0798 7.47979 34.4095 7.88796 34.9995 7.88796C35.3848 7.88796 35.6919 7.73219 35.865 7.5144H35.8845L35.9372 7.8245H36.6055ZM34.8128 6.97787C34.8128 6.55094 35.3126 6.4471 35.8364 6.45287V6.8394C35.8364 6.89133 35.8364 6.94325 35.8168 6.99517C35.746 7.1971 35.5338 7.38171 35.2343 7.38171C34.9995 7.38171 34.8128 7.25479 34.8128 6.97787Z" fill="white"/>
<path fill-rule="evenodd" clip-rule="evenodd" d="M37.5613 4.23462C37.5613 4.44231 37.7575 4.61539 38.0536 4.61539H38.0626C38.366 4.61539 38.5622 4.44231 38.5622 4.23462C38.5549 4.01539 38.366 3.84808 38.0626 3.84808C37.7629 3.84808 37.5613 4.01539 37.5613 4.23462ZM38.504 5.01924H37.6121V7.82597H38.504V5.01924Z" fill="white"/>
<path fill-rule="evenodd" clip-rule="evenodd" d="M39.4065 7.82597H40.147V3.72693H39.4065V7.82597Z" fill="white"/>
<path fill-rule="evenodd" clip-rule="evenodd" d="M43.5384 7.8245C43.5022 7.65286 43.4902 7.40479 43.4902 7.15094V6.14277C43.4902 5.52546 43.2193 4.95575 42.2815 4.95575C41.818 4.95575 41.4402 5.07546 41.2234 5.20238L41.3679 5.66392C41.5651 5.54277 41.8661 5.45623 42.1551 5.45623C42.6729 5.45623 42.7512 5.762 42.7512 5.94661V5.99277C41.6689 5.987 41.0127 6.34902 41.0127 7.05287C41.0127 7.47979 41.3438 7.88796 41.9323 7.88796C42.3177 7.88796 42.6247 7.73219 42.7993 7.5144H42.8174L42.8716 7.8245H43.5384ZM41.7457 6.97787C41.7457 6.55094 42.2454 6.4471 42.7692 6.45287V6.8394C42.7692 6.89133 42.7692 6.94325 42.7512 6.99517C42.6789 7.1971 42.4682 7.38171 42.1672 7.38171C41.9323 7.38171 41.7457 7.25479 41.7457 6.97787Z" fill="white"/>
<path fill-rule="evenodd" clip-rule="evenodd" d="M45.2768 3.72693H44.5363V7.04135C44.5363 7.32404 44.5242 7.63558 44.5122 7.82597H45.1444L45.1805 7.40481H45.1925C45.4033 7.75097 45.7389 7.88943 46.1182 7.88943C46.7805 7.88943 47.4473 7.38751 47.4473 6.37933C47.4533 5.52549 46.943 4.95577 46.2266 4.95577C45.7871 4.95577 45.4695 5.13318 45.2889 5.40433H45.2768V3.72693ZM45.2949 6.83366C45.2828 6.78174 45.2768 6.72404 45.2768 6.66635V6.21202C45.2768 6.14279 45.2889 6.07933 45.3009 6.02741C45.3792 5.71587 45.6546 5.50818 45.9557 5.50818C46.4493 5.50818 46.6962 5.91202 46.6962 6.40818C46.6962 6.97789 46.4132 7.32981 45.9496 7.32981C45.632 7.32981 45.3732 7.12212 45.2949 6.83366Z" fill="white"/>
<path fill-rule="evenodd" clip-rule="evenodd" d="M48.3186 7.82597H49.0576V3.72693H48.3186V7.82597Z" fill="white"/>
<path fill-rule="evenodd" clip-rule="evenodd" d="M51.5547 7.3471C51.0851 7.3471 50.6697 7.12787 50.6516 6.62017H52.6128C52.6249 6.55815 52.6369 6.45431 52.6369 6.32161C52.6369 5.70431 52.3238 4.95575 51.3741 4.95575C50.4349 4.95575 49.9412 5.687 49.9412 6.46585C49.9412 7.32402 50.5011 7.88219 51.4523 7.88219C51.8723 7.88219 52.2215 7.80863 52.4743 7.70335L52.366 7.22017C52.1372 7.29517 51.8964 7.3471 51.5547 7.3471ZM51.3319 5.43892C51.8241 5.43892 51.9445 5.86585 51.9385 6.12546H50.6516C50.6817 5.837 50.8744 5.43892 51.3319 5.43892Z" fill="white"/>
<path fill-rule="evenodd" clip-rule="evenodd" d="M54.8193 6.44277C54.8193 7.3471 55.462 7.8894 56.2869 7.8894H56.2929C57.0319 7.8894 57.7905 7.42787 57.7905 6.39662C57.7905 5.54277 57.2065 4.95575 56.335 4.95575C55.45 4.95575 54.8193 5.51969 54.8193 6.44277ZM57.0259 6.41392C57.0259 6.98363 56.7309 7.37594 56.311 7.37594H56.3034C55.8654 7.37594 55.5825 6.96633 55.5825 6.42546C55.5825 5.95815 55.7932 5.46777 56.317 5.46777C56.8212 5.46777 57.0259 5.97546 57.0259 6.41392Z" fill="white"/>
<path fill-rule="evenodd" clip-rule="evenodd" d="M58.6605 5.85431C58.6605 5.53123 58.65 5.26008 58.6379 5.01777H59.2806L59.3168 5.43892H59.3348C59.4673 5.21969 59.7864 4.95575 60.274 4.95575C60.7843 4.95575 61.3141 5.27161 61.3141 6.16008V7.8245H60.5736V6.24085C60.5736 5.837 60.417 5.53123 60.0152 5.53123C59.7201 5.53123 59.5154 5.73315 59.4372 5.94661C59.4131 6.00431 59.4011 6.09085 59.4011 6.17162V7.8245H58.6605" fill="white"/>
<path fill-rule="evenodd" clip-rule="evenodd" d="M64.7235 4.2981V5.01781H65.4264V5.54858H64.7235V6.78175C64.7235 7.1279 64.8198 7.30098 65.1013 7.30098C65.2338 7.30098 65.306 7.29521 65.3903 7.27213L65.4023 7.80723C65.294 7.84906 65.0953 7.88223 64.8665 7.88223C64.5911 7.88223 64.3683 7.79569 64.2298 7.6529C64.0673 7.49137 63.995 7.23175 63.995 6.86252V5.54858H63.5796V5.01781H63.995V4.49425" fill="white"/>
<path fill-rule="evenodd" clip-rule="evenodd" d="M66.2498 3.72693H66.9903V5.39856H67.0023C67.0926 5.26587 67.2191 5.15626 67.3696 5.08126C67.5201 5.00193 67.6932 4.95577 67.8798 4.95577C68.3796 4.95577 68.9018 5.27164 68.9018 6.17164V7.82597H68.1628V6.24664C68.1628 5.84279 68.0063 5.53126 67.5969 5.53126C67.3094 5.53126 67.1047 5.71587 67.0204 5.92933C66.9963 5.99279 66.9903 6.06779 66.9903 6.14279V7.82597H66.2498" fill="white"/>
<path fill-rule="evenodd" clip-rule="evenodd" d="M71.3791 7.3471C70.9095 7.3471 70.4956 7.12787 70.4775 6.62017H72.4372C72.4493 6.55815 72.4613 6.45431 72.4613 6.32161C72.4613 5.70431 72.1483 4.95575 71.1985 4.95575C70.2608 4.95575 69.7671 5.687 69.7671 6.46585C69.7671 7.32402 70.327 7.88219 71.2768 7.88219C71.6982 7.88219 72.0474 7.80863 72.3003 7.70335L72.1904 7.22017C71.9631 7.29517 71.7223 7.3471 71.3791 7.3471ZM71.1564 5.43892C71.65 5.43892 71.7705 5.86585 71.7644 6.12546H70.4775C70.5076 5.837 70.6988 5.43892 71.1564 5.43892Z" fill="white"/>
<path fill-rule="evenodd" clip-rule="evenodd" d="M18.7136 11.5933C18.694 9.67067 20.3557 8.73462 20.4325 8.69135C19.4918 7.37596 18.0333 7.19712 17.52 7.18269C16.2963 7.0601 15.1087 7.88654 14.4856 7.88654C13.8489 7.88654 12.8871 7.19567 11.8531 7.21587C10.5195 7.23606 9.27324 7.97596 8.58989 9.1226C7.18106 11.4635 8.23167 14.9019 9.5833 16.7942C10.2606 17.7202 11.0493 18.7558 12.0834 18.7183C13.0948 18.6779 13.4726 18.101 14.6933 18.101C15.9035 18.101 16.2587 18.7183 17.3138 18.6952C18.399 18.6779 19.0824 17.7649 19.7341 16.8288C20.5168 15.7673 20.8299 14.7216 20.8419 14.6683C20.8163 14.6596 18.7347 13.8981 18.7136 11.5933Z" fill="white"/>
<path fill-rule="evenodd" clip-rule="evenodd" d="M16.7207 5.93941C17.2641 5.28749 17.6389 4.39902 17.5335 3.49902C16.7463 3.53364 15.7619 4.02114 15.1945 4.65864C14.6933 5.22114 14.2432 6.14277 14.3606 7.00816C15.2457 7.07162 16.1533 6.58123 16.7207 5.93941Z" fill="white"/>
<path fill-rule="evenodd" clip-rule="evenodd" d="M31.9244 18.5654H33.3347L30.6631 10.65H29.0225L26.3613 18.5654H27.734L28.4701 16.2404H31.1523L31.9244 18.5654ZM30.2221 13.1971L30.9205 15.264H28.7019L29.3882 13.1971C29.5673 12.5409 29.6998 12.0433 29.7811 11.7072H29.8051C30.0098 12.489 30.1483 12.9866 30.2221 13.1971Z" fill="white"/>
<path fill-rule="evenodd" clip-rule="evenodd" d="M39.3523 17.9423C39.9002 17.3798 40.1742 16.6111 40.1742 15.6404C40.1742 14.7721 39.9378 14.0726 39.4682 13.539C39.0001 13.0068 38.4116 12.7399 37.7102 12.7399C36.8116 12.7399 36.1418 13.0803 35.7008 13.7625H35.6752L35.6015 12.8568H34.438C34.4711 13.5 34.4862 14.126 34.4862 14.7361V20.8904H35.8107V17.8832H35.8348C36.178 18.4226 36.7409 18.6938 37.5266 18.6938C38.2521 18.6938 38.8617 18.4443 39.3523 17.9423ZM38.4327 14.3135C38.6946 14.6741 38.8255 15.1313 38.8255 15.688C38.8255 16.2909 38.6871 16.7755 38.4071 17.1433C38.1317 17.5125 37.7433 17.6957 37.2436 17.6957C36.8192 17.6957 36.4745 17.5544 36.2081 17.2673C35.9431 16.9818 35.8107 16.6313 35.8107 16.2159V15.264C35.8107 15.163 35.8303 15.0346 35.8709 14.8789C35.9537 14.5414 36.1283 14.2702 36.3932 14.0611C36.6566 13.8548 36.9546 13.7495 37.2812 13.7495C37.7629 13.7495 38.1467 13.9385 38.4327 14.3135Z" fill="white"/>
<path fill-rule="evenodd" clip-rule="evenodd" d="M46.2024 17.9423C46.7503 17.3798 47.0227 16.6111 47.0227 15.6404C47.0227 14.7721 46.7894 14.0726 46.3198 13.539C45.8487 13.0068 45.2632 12.7399 44.5603 12.7399C43.6617 12.7399 42.9919 13.0803 42.5524 13.7625H42.5268L42.453 12.8568H41.2896C41.3212 13.5 41.3377 14.126 41.3377 14.7361V20.8904H42.6623V17.8832H42.6848C43.0295 18.4226 43.5924 18.6938 44.3766 18.6938C45.1036 18.6938 45.7117 18.4443 46.2024 17.9423ZM45.2827 14.3135C45.5446 14.6741 45.6756 15.1313 45.6756 15.688C45.6756 16.2909 45.5356 16.7755 45.2587 17.1433C44.9817 17.5125 44.5934 17.6957 44.0952 17.6957C43.6692 17.6957 43.3245 17.5544 43.0581 17.2673C42.7932 16.9818 42.6623 16.6313 42.6623 16.2159V15.264C42.6623 15.163 42.6818 15.0346 42.724 14.8789C42.8052 14.5414 42.9768 14.2702 43.2432 14.0611C43.5082 13.8548 43.8047 13.7495 44.1313 13.7495C44.6129 13.7495 44.9968 13.9385 45.2827 14.3135Z" fill="white"/>
<path fill-rule="evenodd" clip-rule="evenodd" d="M54.6839 16.3457C54.6839 17.0178 54.4401 17.5659 53.9494 17.9899C53.4106 18.4514 52.6625 18.6822 51.7007 18.6822C50.8112 18.6822 50.0977 18.5178 49.5574 18.1889L49.8644 17.1332C50.4469 17.4692 51.0836 17.6365 51.779 17.6365C52.2772 17.6365 52.6655 17.5298 52.944 17.3149C53.2209 17.0986 53.3594 16.8101 53.3594 16.4495C53.3594 16.1293 53.2465 15.8567 53.0177 15.6375C52.789 15.4183 52.4081 15.2149 51.8768 15.026C50.4304 14.5082 49.7079 13.751 49.7079 12.7558C49.7079 12.1053 49.9608 11.5716 50.468 11.1563C50.9737 10.7409 51.648 10.5317 52.4894 10.5317C53.242 10.5317 53.8666 10.6587 54.3649 10.9082L54.0337 11.9423C53.5686 11.7 53.0418 11.5774 52.4533 11.5774C51.9867 11.5774 51.624 11.687 51.3636 11.9063C51.1438 12.1024 51.0324 12.3418 51.0324 12.6231C51.0324 12.9361 51.1574 13.1942 51.4117 13.3976C51.6315 13.5851 52.0319 13.7885 52.6128 14.0091C53.3233 14.2832 53.8456 14.6034 54.1812 14.9712C54.5154 15.339 54.6839 15.7976 54.6839 16.3457Z" fill="white"/>
<path fill-rule="evenodd" clip-rule="evenodd" d="M59.0581 13.8086H57.5996V16.5793C57.5996 17.2846 57.857 17.6365 58.3733 17.6365C58.6081 17.6365 58.8052 17.6178 58.9603 17.5788L58.9964 18.5408C58.7375 18.636 58.3928 18.6822 57.9684 18.6822C57.4461 18.6822 57.0367 18.5293 56.7417 18.225C56.4482 17.9192 56.3006 17.4057 56.3006 16.686V13.8086H55.4307V12.8567H56.3006V11.8125L57.5996 11.436V12.8567H59.0581" fill="white"/>
<path fill-rule="evenodd" clip-rule="evenodd" d="M64.8559 17.8255C65.3797 17.2616 65.6401 16.5419 65.6401 15.6649C65.6401 14.8111 65.3872 14.1159 64.88 13.5736C64.3502 13.0183 63.6458 12.7399 62.7713 12.7399C61.8652 12.7399 61.1442 13.0212 60.6099 13.5866C60.074 14.1491 59.8076 14.8731 59.8076 15.7587C59.8076 16.6039 60.0665 17.3048 60.5843 17.8601C61.1036 18.4154 61.7989 18.6938 62.6749 18.6938C63.5811 18.6938 64.308 18.4053 64.8559 17.8255ZM63.9107 14.351C64.1485 14.7289 64.2674 15.1789 64.2674 15.7053C64.2674 16.2318 64.1455 16.6875 63.9001 17.0712C63.6142 17.5356 63.2168 17.7664 62.7126 17.7664C62.1963 17.7664 61.7959 17.5385 61.51 17.0827C61.2721 16.7063 61.1562 16.2563 61.1562 15.7298C61.1562 15.1875 61.2721 14.7289 61.51 14.351C61.7869 13.8952 62.1918 13.6673 62.7231 13.6673C63.2379 13.6673 63.6352 13.8952 63.9107 14.351Z" fill="white"/>
<path fill-rule="evenodd" clip-rule="evenodd" d="M69.9418 13.9731C69.8108 13.95 69.6724 13.9385 69.5249 13.9385C69.0598 13.9385 68.6985 14.1072 68.4457 14.4433C68.2259 14.7419 68.116 15.1169 68.116 15.5697V18.5654H66.793L66.8035 14.6553C66.8035 13.9962 66.787 13.3976 66.7554 12.8568H67.9083L67.9565 13.95H67.9911C68.1311 13.575 68.3523 13.2721 68.6534 13.0457C68.9484 12.8423 69.2675 12.7399 69.6107 12.7399C69.7326 12.7399 69.844 12.7486 69.9418 12.763" fill="white"/>
<path fill-rule="evenodd" clip-rule="evenodd" d="M75.8119 16.0169C75.8435 15.8596 75.8586 15.6693 75.8586 15.4414C75.8586 14.7289 75.6855 14.1289 75.3348 13.6443C74.8937 13.0327 74.242 12.7284 73.3841 12.7284C72.5111 12.7284 71.8157 13.0327 71.3024 13.6443C70.8102 14.2154 70.5664 14.9322 70.5664 15.7933C70.5664 16.6702 70.8313 17.3697 71.3566 17.889C71.8834 18.4111 72.6089 18.6721 73.5316 18.6721C74.3007 18.6721 74.966 18.5524 75.5304 18.3188L75.3227 17.4375C74.8396 17.6178 74.3037 17.7072 73.7167 17.7072C73.1854 17.7072 72.7519 17.576 72.4178 17.3092C72.049 17.012 71.8563 16.5808 71.8428 16.0169H75.8119ZM74.3413 14.1375C74.5205 14.4116 74.6063 14.7375 74.5972 15.1125H71.8428C71.8804 14.7289 72.0129 14.4 72.2326 14.126C72.502 13.7813 72.8543 13.6082 73.2862 13.6082C73.7589 13.6082 74.1126 13.7856 74.3413 14.1375Z" fill="white"/>
</svg>
