<svg width="17" height="13" viewBox="0 0 17 13" fill="none" xmlns="http://www.w3.org/2000/svg">
<path fill-rule="evenodd" clip-rule="evenodd" d="M0.196154 7.15C0.0653846 7.02 0 6.825 0 6.695C0 6.565 0.0653846 6.37 0.196154 6.24L1.11154 5.33C1.37308 5.07 1.76538 5.07 2.02692 5.33L2.09231 5.395L5.68846 9.23C5.81923 9.36 6.01538 9.36 6.14615 9.23L14.9077 0.195H14.9731C15.2346 -0.065 15.6269 -0.065 15.8885 0.195L16.8038 1.105C17.0654 1.365 17.0654 1.755 16.8038 2.015L6.34231 12.805C6.21154 12.935 6.08077 13 5.88462 13C5.68846 13 5.55769 12.935 5.42692 12.805L0.326923 7.345L0.196154 7.15Z" fill="#84B400"/>
</svg>
