<svg width="81" height="93" viewBox="0 0 81 93" fill="none" xmlns="http://www.w3.org/2000/svg">
<rect y="21" width="81" height="72" rx="4" fill="#F3F3F3"/>
<rect x="16" y="75" width="8" height="8" rx="4" fill="#353B4C"/>
<rect x="16" y="64" width="8" height="8" rx="4" fill="#353B4C"/>
<rect x="16" y="53" width="8" height="8" rx="4" fill="#353B4C"/>
<rect x="27" y="55" width="25" height="3" rx="1.5" fill="#353B4C"/>
<rect x="27" y="67" width="37" height="3" rx="1.5" fill="#353B4C"/>
<rect x="27" y="78" width="37" height="3" rx="1.5" fill="#353B4C"/>
<circle cx="41" cy="20" r="16" fill="#F3F3F3"/>
<path fill-rule="evenodd" clip-rule="evenodd" d="M40.5 42C51.8218 42 61 32.598 61 21C61 20.9805 61 20.9611 60.9999 20.9416H40L50.0625 3L51.2989 3.14652C48.163 1.15184 44.4628 0 40.5 0C29.1782 0 20 9.40202 20 21C20 32.598 29.1782 42 40.5 42Z" fill="url(#paint0_linear)"/>
<defs>
<linearGradient id="paint0_linear" x1="20" y1="0" x2="20" y2="42" gradientUnits="userSpaceOnUse">
<stop stop-color="#D9FF65"/>
<stop offset="1" stop-color="#84B400"/>
</linearGradient>
</defs>
</svg>
