<svg width="25" height="24" viewBox="0 0 25 24" fill="none" xmlns="http://www.w3.org/2000/svg">
<path fill-rule="evenodd" clip-rule="evenodd" d="M3.01746 0C1.19292 0 0 1.2964 0 3.00033C0 4.66663 1.15739 6 2.94745 6H2.98208C4.84231 6 6 4.66663 6 3.00033C5.96522 1.2964 4.84231 0 3.01746 0Z" fill="#D0D0D0"/>
<path fill-rule="evenodd" clip-rule="evenodd" d="M1 8H6V24H1V8Z" fill="#D0D0D0"/>
<path fill-rule="evenodd" clip-rule="evenodd" d="M18.9656 7C16.1379 7 14.2418 9.7987 14.2418 9.7987V7.38984H9V24H14.2415V14.7242C14.2415 14.2277 14.2757 13.7319 14.4142 13.3768C14.7931 12.3852 15.6554 11.3579 17.1035 11.3579C19.0002 11.3579 19.7588 12.8811 19.7588 15.1141V24H25V14.476C25 9.37411 22.4139 7 18.9656 7Z" fill="#D0D0D0"/>
</svg>
