<svg width="69" height="72" viewBox="0 0 69 72" fill="none" xmlns="http://www.w3.org/2000/svg">
<rect width="37" height="72" rx="4" fill="#F3F3F3"/>
<rect x="6" y="20" width="14" height="3" rx="1.5" fill="#353B4C"/>
<rect x="6" y="50" width="25" height="3" rx="1.5" fill="#353B4C"/>
<rect x="8.12134" y="28" width="8" height="3" rx="1.5" transform="rotate(45 8.12134 28)" fill="#353B4C"/>
<rect x="17.7781" y="30.1213" width="8" height="3" rx="1.5" transform="rotate(135 17.7781 30.1213)" fill="#353B4C"/>
<rect x="6" y="7" width="9" height="9" rx="4" fill="#353B4C"/>
<rect x="6" y="56" width="25" height="3" rx="1.5" fill="#353B4C"/>
<path fill-rule="evenodd" clip-rule="evenodd" d="M61.0249 14.5719C55.0196 12.6021 48.5656 15.8893 46.5047 21.9201C44.444 15.883 37.9899 12.6021 31.9846 14.5719C25.9097 16.5737 22.5973 23.1865 24.5697 29.3581C26.4661 35.2418 44.0521 51 46.3024 51C48.5528 51 66.5309 35.261 68.4273 29.3581C70.4058 23.1737 67.0934 16.5609 61.0249 14.5719Z" fill="url(#paint0_linear)"/>
<defs>
<linearGradient id="paint0_linear" x1="24" y1="14" x2="24" y2="51" gradientUnits="userSpaceOnUse">
<stop stop-color="#D9FF65"/>
<stop offset="1" stop-color="#84B400"/>
</linearGradient>
</defs>
</svg>
