<svg width="22" height="28" viewBox="0 0 22 28" fill="none" xmlns="http://www.w3.org/2000/svg">
<path fill-rule="evenodd" clip-rule="evenodd" d="M15.597 0H0.748512C0.335116 0 0 0.3275 0 0.963V27.5C0 27.6725 0.335116 28 0.748512 28H21.2515C21.6649 28 22 27.6725 22 27.5V6.489C22 6.141 21.9524 6.029 21.8685 5.9465L15.9152 0.1285C15.8308 0.0465 15.7162 0 15.597 0Z" fill="#E9E9E0"/>
<path fill-rule="evenodd" clip-rule="evenodd" d="M16 0V6H22L16 0Z" fill="#D9D7CA"/>
<path fill-rule="evenodd" clip-rule="evenodd" d="M6.08955 17C5.90863 17 5.73499 16.9444 5.58683 16.8396C5.04563 16.4552 4.97285 16.0276 5.00716 15.7362C5.10178 14.935 6.1483 14.0965 8.11865 13.2421C8.90055 11.6201 9.6445 9.62156 10.088 7.95177C9.56912 6.88287 9.06483 5.49606 9.43239 4.68258C9.56132 4.39764 9.72196 4.17913 10.0219 4.08465C10.1405 4.04724 10.4399 4 10.5501 4C10.7858 4 10.9959 4.25845 11.1545 4.45367L11.1546 4.4537C11.1723 4.47548 11.1893 4.49648 11.2057 4.51624L11.2091 4.52039C11.3642 4.70723 11.7017 5.11404 11.0118 7.86368C11.7126 9.23376 12.7056 10.6294 13.6569 11.5851C14.3385 11.4685 14.9249 11.409 15.4027 11.409C16.2168 11.409 16.7102 11.5886 16.9114 11.9587C17.0778 12.2648 17.0097 12.6225 16.7086 13.0217C16.4191 13.405 16.0198 13.6078 15.5545 13.6078C14.9223 13.6078 14.1862 13.2298 13.3653 12.4833C11.8904 12.7751 10.168 13.2958 8.77578 13.872C8.34116 14.7451 7.92473 15.4483 7.5369 15.9641C7.00402 16.6703 6.54445 17 6.08955 17ZM7.47348 14.4774C6.36249 15.0684 5.90967 15.5541 5.87692 15.8278L5.8769 15.8279C5.87168 15.8734 5.85802 15.9924 6.10099 16.1683C6.17845 16.1452 6.63075 15.9498 7.47348 14.4774ZM14.8323 12.4971L14.8323 12.497L14.8323 12.497C14.7578 12.4384 14.6708 12.3698 14.5631 12.2913C14.9125 12.249 15.2426 12.2382 15.5051 12.2377C15.9317 12.2377 16.0367 12.293 16.1007 12.3267L16.116 12.3346C16.104 12.3701 16.0739 12.436 15.9964 12.5389C15.8358 12.751 15.489 12.7559 15.3674 12.7559C15.1607 12.7559 15.0506 12.6691 14.8323 12.4971ZM10.6796 9.05217C10.3079 10.2697 9.8171 11.5842 9.28942 12.7746C10.376 12.3755 11.5571 12.0271 12.6666 11.7805C11.9647 11.0089 11.2634 10.0453 10.6796 9.05217ZM10.364 4.8878C10.3131 4.90404 9.67257 5.75246 10.4139 6.47047C10.9073 5.42963 10.3864 4.88091 10.364 4.8878Z" fill="#CC4B4C"/>
<path fill-rule="evenodd" clip-rule="evenodd" d="M21.2515 28H0.748512C0.335116 28 0 27.6532 0 27.2255V19H22V27.2255C22 27.6532 21.6649 28 21.2515 28Z" fill="#CC4B4C"/>
<path fill-rule="evenodd" clip-rule="evenodd" d="M5.37207 27H6.19207V25.0162H6.80057C7.06457 25.0162 7.30657 24.9742 7.52507 24.8897C7.74357 24.8051 7.93057 24.6857 8.08557 24.5318C8.24057 24.378 8.36157 24.1877 8.44807 23.9613C8.53457 23.7349 8.57807 23.4829 8.57807 23.2042C8.57807 22.9402 8.52657 22.7029 8.42407 22.4918C8.32157 22.2808 8.18707 22.1002 8.02057 21.9513C7.85407 21.8024 7.66607 21.6906 7.45657 21.6158C7.24707 21.5411 7.03507 21.504 6.82107 21.504H5.37207V27ZM6.19257 24.36V22.1831H6.80757C7.01707 22.1831 7.18607 22.2191 7.31357 22.2911C7.44107 22.3631 7.54007 22.4526 7.61107 22.5595C7.68157 22.6664 7.72807 22.7782 7.75107 22.8949C7.77357 23.0111 7.78507 23.1148 7.78507 23.2042C7.78507 23.4278 7.76007 23.6155 7.71007 23.7671C7.66007 23.9188 7.59407 24.0366 7.51207 24.1211C7.43007 24.2057 7.34007 24.2668 7.24207 24.3038C7.14357 24.3415 7.04457 24.36 6.94457 24.36H6.19257Z" fill="white"/>
<path fill-rule="evenodd" clip-rule="evenodd" d="M13.476 25.2589C13.565 24.9382 13.6095 24.5515 13.6095 24.0993C13.6095 23.7709 13.557 23.4513 13.452 23.1404C13.347 22.83 13.189 22.5524 12.977 22.3091C12.765 22.0658 12.498 21.87 12.177 21.7238C11.856 21.5777 11.4835 21.504 11.0595 21.504H9.54199V27H11.449C11.513 27 11.611 26.9913 11.743 26.9749C11.875 26.9575 12.021 26.9177 12.1805 26.8555C12.34 26.7928 12.505 26.7 12.676 26.5757C12.847 26.4513 13.0005 26.2811 13.1375 26.0646C13.2745 25.848 13.387 25.5797 13.476 25.2589ZM12.379 25.7624C12.133 26.1502 11.732 26.3438 11.176 26.3438H10.3625V22.1826H10.841C11.233 22.1826 11.552 22.2388 11.798 22.3506C12.044 22.4624 12.239 22.6091 12.3825 22.7908C12.526 22.9724 12.6225 23.1748 12.673 23.3984C12.723 23.622 12.748 23.8484 12.748 24.0769C12.748 24.8128 12.625 25.3746 12.379 25.7624Z" fill="white"/>
<path fill-rule="evenodd" clip-rule="evenodd" d="M15.6331 22.1826V23.9128H17.7386V24.5242H15.6331V27H14.7991V21.504H17.9501V22.1826H15.6331Z" fill="white"/>
</svg>
