<svg width="32" height="27" viewBox="0 0 32 27" fill="none" xmlns="http://www.w3.org/2000/svg">
<path fill-rule="evenodd" clip-rule="evenodd" d="M7.93866 15.6133L0.565215 12.9464C-0.183693 12.6744 -0.190199 11.6498 0.556575 11.3707L30.8174 0.0579346C31.4589 -0.182502 32.1209 0.36215 31.9811 1.01503L26.5506 26.3292C26.4226 26.9269 25.6995 27.1979 25.1891 26.8384L17.776 21.6227C17.3258 21.306 16.7121 21.3229 16.2813 21.6631L12.1712 24.9101C11.6941 25.2882 10.9753 25.0776 10.7926 24.5079L7.93866 15.6133ZM24.7432 5.59262L10.3327 14.1937C9.78037 14.524 9.52032 15.1704 9.69877 15.7755L11.2569 21.0809C11.3675 21.4569 11.9306 21.4183 11.9842 21.0299L12.3893 18.1204C12.4657 17.5727 12.7354 17.068 13.1534 16.6909L25.0462 5.97778C25.2686 5.77786 25.0022 5.4385 24.7432 5.59262Z" fill="#D0D0D0"/>
</svg>
