<svg width="17" height="9" viewBox="0 0 17 9" fill="none" xmlns="http://www.w3.org/2000/svg">
<path d="M3.72329 2.04531L4.16859 2.27271L4.41882 1.7827L3.90717 1.58035L3.72329 2.04531ZM3.80715 8.11344L4.03699 8.55748L4.49102 8.32247L4.24597 7.87378L3.80715 8.11344ZM1.39363 8.90273L1.83305 8.66418L1.39363 8.90273ZM1.53131 7.5834L2.01392 7.71413L1.53131 7.5834ZM1.3076 2.90607L0.847393 3.10155L1.3076 2.90607ZM1.09457 1.66654L0.723858 1.33102L0.723858 1.33102L1.09457 1.66654ZM15.8874 1.12014L15.4904 1.42408L15.4904 1.42408L15.8874 1.12014ZM13.1528 1.81434L12.9319 1.3658L12.4579 1.59925L12.7171 2.05962L13.1528 1.81434ZM15.5799 2.79992L16.0383 2.99975V2.99975L15.5799 2.79992ZM15.4364 7.20669L15.9112 7.05003L15.4364 7.20669ZM15.633 8.90273L15.2656 8.56356L15.633 8.90273ZM13.1802 8.13646L12.7424 7.89501L12.503 8.32904L12.935 8.57217L13.1802 8.13646ZM3.5 5C3.5 4.09712 3.72784 3.1358 4.16859 2.27271L3.27799 1.81791C2.76679 2.81895 2.5 3.93581 2.5 5H3.5ZM4.24597 7.87378C3.75481 6.97443 3.5 5.95486 3.5 5H2.5C2.5 6.12465 2.79799 7.30876 3.36832 8.35309L4.24597 7.87378ZM3.57731 7.66939C2.95069 7.99373 2.40524 8.2379 2.01165 8.37112C1.81044 8.43922 1.67701 8.4685 1.60411 8.47471C1.5664 8.47793 1.57631 8.47194 1.6127 8.48176C1.65446 8.49303 1.76363 8.5363 1.83305 8.66418L0.954206 9.14128C1.05609 9.32895 1.22527 9.41298 1.35215 9.44722C1.47367 9.48002 1.59384 9.47922 1.68907 9.4711C1.88207 9.45464 2.10535 9.39513 2.33225 9.31833C2.79488 9.16175 3.39128 8.8917 4.03699 8.55748L3.57731 7.66939ZM1.83305 8.66418C1.84018 8.6773 1.81262 8.63474 1.84132 8.43918C1.8685 8.25391 1.93005 8.02372 2.01392 7.71413L1.04871 7.45266C0.970188 7.74251 0.889615 8.03699 0.851906 8.29403C0.815706 8.54077 0.800507 8.85816 0.954206 9.14128L1.83305 8.66418ZM2.01392 7.71413C2.1823 7.09259 2.41302 6.24854 2.41302 5.26127H1.41302C1.41302 6.10022 1.21819 6.82703 1.04871 7.45266L2.01392 7.71413ZM2.41302 5.26127C2.41302 4.21646 2.02985 3.32752 1.7678 2.71059L0.847393 3.10155C1.11552 3.73279 1.41302 4.44626 1.41302 5.26127H2.41302ZM1.7678 2.71059C1.63878 2.40686 1.55286 2.20041 1.51561 2.04293C1.47681 1.87891 1.53015 1.93039 1.46528 2.00206L0.723858 1.33102C0.445638 1.63843 0.48277 2.02077 0.542464 2.27313C0.603707 2.53203 0.730973 2.82748 0.847393 3.10155L1.7678 2.71059ZM1.46528 2.00206C1.4066 2.06689 1.3698 2.04729 1.47412 2.03285C1.56251 2.02061 1.70384 2.01951 1.90375 2.04488C2.3009 2.09526 2.85745 2.24057 3.53941 2.51027L3.90717 1.58035C3.17488 1.29074 2.53453 1.11689 2.02961 1.05283C1.77848 1.02097 1.54249 1.01383 1.33694 1.0423C1.14733 1.06856 0.899991 1.13641 0.723858 1.33102L1.46528 2.00206ZM16.2844 0.816199C16.0788 0.547586 15.7583 0.502562 15.553 0.500113C15.3248 0.497391 15.0668 0.544435 14.8054 0.614784C14.2768 0.757048 13.6215 1.02612 12.9319 1.3658L13.3737 2.26288C14.0362 1.93658 14.6258 1.6987 15.0653 1.58043C15.2879 1.52051 15.4448 1.49889 15.541 1.50004C15.6602 1.50146 15.5737 1.53284 15.4904 1.42408L16.2844 0.816199ZM16.0383 2.99975C16.1901 2.65154 16.3548 2.27759 16.4384 1.94295C16.5197 1.61754 16.5636 1.1808 16.2844 0.816199L15.4904 1.42408C15.4908 1.42456 15.4915 1.42542 15.4929 1.42922C15.4944 1.43371 15.4977 1.44498 15.4992 1.4661C15.5025 1.51186 15.4967 1.58648 15.4682 1.70047C15.4092 1.93669 15.2848 2.22584 15.1216 2.60008L16.0383 2.99975ZM15.4545 5C15.4545 4.35726 15.7384 3.68745 16.0383 2.99975L15.1216 2.60008C14.8401 3.24569 14.4545 4.11141 14.4545 5H15.4545ZM15.9112 7.05003C15.6821 6.35565 15.4545 5.6513 15.4545 5H14.4545C14.4545 5.84103 14.7435 6.70238 14.9616 7.36336L15.9112 7.05003ZM16.0004 9.2419C16.308 8.90876 16.2764 8.45616 16.223 8.14951C16.1646 7.81406 16.0344 7.42336 15.9112 7.05003L14.9616 7.36336C15.0929 7.76134 15.1948 8.07382 15.2379 8.32115C15.286 8.59728 15.2255 8.60704 15.2656 8.56356L16.0004 9.2419ZM12.935 8.57217C13.5952 8.94385 14.1802 9.22209 14.6476 9.37135C14.8791 9.4453 15.1093 9.49674 15.3195 9.49985C15.5203 9.50282 15.7974 9.46177 16.0004 9.2419L15.2656 8.56356C15.3437 8.47899 15.4141 8.50114 15.3343 8.49996C15.264 8.49892 15.14 8.47887 14.9518 8.41876C14.5797 8.2999 14.0632 8.05972 13.4255 7.70075L12.935 8.57217ZM13.5 5C13.5 5.96246 13.2411 6.99057 12.7424 7.89501L13.6181 8.3779C14.1973 7.32746 14.5 6.13348 14.5 5H13.5ZM12.7171 2.05962C13.2323 2.97478 13.5 4.02123 13.5 5H14.5C14.5 3.84758 14.1871 2.6324 13.5885 1.56906L12.7171 2.05962Z" fill="#D0D0D0"/>
<circle cx="8.5" cy="5.5" r="2.5" stroke="#D0D0D0"/>
</svg>
