<svg width="3" height="6" viewBox="0 0 3 6" fill="none" xmlns="http://www.w3.org/2000/svg">
<path fill-rule="evenodd" clip-rule="evenodd" d="M0.578474 0.391991C0.765658 0.297429 0.993995 0.358142 1.10949 0.533185L2.58004 2.76186C2.71606 2.96801 2.64197 3.24667 2.42152 3.35803C2.23434 3.45259 2.006 3.39188 1.8905 3.21684L0.419957 0.988162C0.283933 0.782012 0.358025 0.503358 0.578474 0.391991Z" fill="#84B400"/>
<path fill-rule="evenodd" clip-rule="evenodd" d="M2.38387 2.71305C2.60431 2.82441 2.67841 3.10307 2.54238 3.30922L1.07184 5.53789C0.956339 5.71293 0.728001 5.77365 0.540817 5.67909C0.320368 5.56772 0.246277 5.28907 0.3823 5.08292L1.85285 2.85424C1.96834 2.6792 2.19668 2.61848 2.38387 2.71305Z" fill="#84B400"/>
</svg>
