<svg width="258" height="129" viewBox="0 0 258 129" fill="none" xmlns="http://www.w3.org/2000/svg">
<path fill-rule="evenodd" clip-rule="evenodd" d="M1.62029 15.7482C9.224 8.57685 62.3627 19.0778 125.231 61.2279C188.099 103.378 242.105 129.536 250.712 121.577C259.32 113.619 239.087 87.8331 239.087 64.5C239.087 41.1669 263.989 17.7005 255.071 7.75706C246.153 -2.18643 168.037 32.0281 132.585 61.2279C97.1339 90.4278 11.8681 129.634 6.7442 121.577C1.62029 113.521 15.643 94.5124 15.643 68.321C15.643 42.1297 -5.98342 22.9195 1.62029 15.7482Z" stroke="#F7F7F7"/>
<path opacity="0.538504" fill-rule="evenodd" clip-rule="evenodd" d="M2.62029 20.7482C10.224 13.5769 63.3627 24.0778 126.231 66.2279C189.099 108.378 243.105 134.536 251.712 126.577C260.32 118.619 240.087 92.8331 240.087 69.5C240.087 46.1669 264.989 22.7005 256.071 12.7571C247.153 2.81357 169.037 37.0281 133.585 66.2279C98.1339 95.4278 12.8681 134.634 7.7442 126.577C2.62029 118.521 16.643 99.5124 16.643 73.321C16.643 47.1297 -4.98342 27.9195 2.62029 20.7482Z" stroke="#F7F7F7"/>
<path fill-rule="evenodd" clip-rule="evenodd" d="M50.3736 2.24834C52.1266 0.59433 64.3781 3.01629 78.8726 12.7379C93.3672 22.4594 105.819 28.4925 107.803 26.657C109.788 24.8215 105.123 18.8741 105.123 13.4925C105.123 8.11095 110.864 2.69864 108.808 0.405251C106.752 -1.88813 88.7418 6.00316 80.5683 12.7379C72.3948 19.4726 52.7363 28.5152 51.5549 26.657C50.3736 24.7988 53.6066 20.4147 53.6066 14.3738C53.6066 8.33301 48.6205 3.90234 50.3736 2.24834Z" fill="url(#paint0_linear)"/>
<circle cx="80" cy="13" r="11" fill="#353B4C"/>
<path fill-rule="evenodd" clip-rule="evenodd" d="M81.9443 19H78.9456V10.3398L76 11.1924V8.94238L81.6693 7H81.9443V19Z" fill="#28CDC2"/>
<defs>
<linearGradient id="paint0_linear" x1="59.036" y1="0.377344" x2="57.4757" y2="22.8951" gradientUnits="userSpaceOnUse">
<stop stop-color="#28CDC2"/>
<stop offset="0.486468" stop-color="#01B464"/>
<stop offset="1" stop-color="#00DF99"/>
</linearGradient>
</defs>
</svg>
