<svg width="73" height="15" viewBox="0 0 73 15" fill="none" xmlns="http://www.w3.org/2000/svg">
<path fill-rule="evenodd" clip-rule="evenodd" d="M35.5517 8.38408L34.9659 6.61336C34.8073 6.12823 34.7585 5.93418 34.6853 5.44905C34.6121 5.93418 34.5632 6.12823 34.4046 6.61336L33.8189 8.38408H35.5517ZM33.343 9.80308L32.8671 11.2585C32.6962 11.7678 32.3546 11.8285 31.9519 11.8285C31.5492 11.8285 31.0489 11.7557 31.2197 11.2585L33.7457 3.73897C33.8921 3.30236 34.2826 3.13256 34.6853 3.13256C35.088 3.13256 35.4784 3.30236 35.6249 3.73897L38.1508 11.2585C38.3217 11.7557 37.8214 11.8285 37.4187 11.8285C37.016 11.8285 36.6743 11.7678 36.5035 11.2585L36.0276 9.80308H33.343ZM40.1336 5.84928C40.4509 5.52182 41.0366 5.30351 41.598 5.30351C43.5626 5.30351 44.2826 6.64974 44.2826 8.59026C44.2826 10.5308 43.4772 11.8891 41.598 11.8891C41.0854 11.8891 40.5729 11.7436 40.2313 11.4161V13.4173C40.2313 13.8782 39.8286 13.9994 39.4137 13.9994C39.011 13.9994 38.5961 13.8782 38.5961 13.4173V5.93418C38.5961 5.47331 38.9256 5.31564 39.3405 5.31564C39.6943 5.31564 40.0604 5.41267 40.1336 5.84928ZM40.2313 8.80856C40.2313 9.58477 40.5607 10.6278 41.4393 10.6278C42.4399 10.6278 42.562 9.49987 42.562 8.59026C42.562 7.68064 42.4399 6.56485 41.4393 6.56485C40.6217 6.56485 40.2313 7.49872 40.2313 8.2628V8.80856ZM46.4728 5.84928C46.7901 5.52182 47.3758 5.30351 47.9371 5.30351C49.9018 5.30351 50.6217 6.64974 50.6217 8.59026C50.6217 10.5308 49.8163 11.8891 47.9371 11.8891C47.4246 11.8891 46.9121 11.7436 46.5704 11.4161V13.4173C46.5704 13.8782 46.1677 13.9994 45.7528 13.9994C45.3502 13.9994 44.9353 13.8782 44.9353 13.4173V5.93418C44.9353 5.47331 45.2647 5.31564 45.6796 5.31564C46.0335 5.31564 46.3996 5.41267 46.4728 5.84928ZM46.5704 8.80856C46.5704 9.58477 46.8999 10.6278 47.7785 10.6278C48.7791 10.6278 48.9011 9.49987 48.9011 8.59026C48.9011 7.68064 48.7791 6.56485 47.7785 6.56485C46.9609 6.56485 46.5704 7.49872 46.5704 8.2628V8.80856Z" fill="#DEDEDE"/>
<path fill-rule="evenodd" clip-rule="evenodd" d="M51.5757 7.49872C51.5757 4.91541 52.4665 3.12044 55.0535 3.12044C57.0181 3.12044 57.9089 4.29687 58.0675 5.82503C58.1041 6.201 57.7136 6.40718 57.2865 6.40718C56.8228 6.41931 56.5178 6.32228 56.4202 5.88567C56.2371 5.01244 55.9198 4.53944 54.9802 4.53944C53.4427 4.53944 53.2475 6.17674 53.2475 7.49872C53.2475 8.80856 53.4671 10.458 54.9802 10.4459C55.9443 10.4459 56.2371 9.8152 56.4446 9.08751C56.5544 8.72367 56.8228 8.57813 57.311 8.566C57.8845 8.566 58.1895 8.77218 58.0919 9.28156C57.8479 10.5914 56.9571 11.877 54.9802 11.877C52.4421 11.877 51.5757 10.0699 51.5757 7.49872ZM62.2102 11.2463C61.7953 11.5981 61.2828 11.877 60.3798 11.877C59.2693 11.877 58.2809 11.1372 58.2809 9.88797C58.2809 7.80192 60.3554 7.58362 61.9539 7.68064C61.9661 6.84379 61.4902 6.60123 60.9899 6.60123C60.3188 6.5891 60.0503 6.72251 59.4768 6.96508C59.1839 7.08636 58.9277 7.09849 58.6958 6.83167C58.464 6.54059 58.4518 6.07972 58.8178 5.86141C59.5256 5.43692 60.2212 5.29138 61.0143 5.29138C62.4054 5.29138 63.5891 5.92205 63.5891 7.60787V10.4095C63.5891 10.6763 63.6135 10.931 63.6379 11.2221C63.6745 11.6466 63.4183 11.7678 63.0278 11.78C62.6007 11.78 62.3932 11.6344 62.2102 11.2463ZM61.9539 8.8692C61.2706 8.82069 59.8917 8.82069 59.9283 9.88797C59.9405 10.3003 60.27 10.5672 60.7825 10.5672C61.6367 10.5672 62.0638 9.76669 61.9539 8.8692ZM64.913 11.2706V6.77103H64.5225C64.0588 6.77103 63.9367 6.44356 63.9367 6.1161C63.9367 5.78864 64.0588 5.46118 64.5225 5.46118H64.913V5.27926C64.913 3.93303 65.4133 3.14469 67.1583 3.14469C67.3413 3.14469 67.5487 3.15682 67.6952 3.1932C68.0246 3.2781 68.1223 3.49641 68.1223 3.90877C68.1101 4.36964 67.9758 4.55156 67.5853 4.53944C67.5121 4.52731 67.4145 4.52731 67.3413 4.52731C66.9508 4.53944 66.5481 4.63646 66.5481 5.255V5.46118H67.085C67.5487 5.46118 67.6708 5.78864 67.6708 6.1161C67.6708 6.44356 67.5487 6.77103 67.085 6.77103H66.5481V11.2706C66.5481 11.7315 66.1454 11.8527 65.7305 11.8527C65.3278 11.8527 64.913 11.7315 64.913 11.2706ZM70.3766 6.55272C69.6689 6.55272 69.254 7.04997 69.1686 7.81405H71.1698C71.2918 7.81405 71.4017 7.74128 71.3895 7.54723C71.3407 6.90444 70.938 6.55272 70.3766 6.55272ZM72.7562 10.3125C72.4389 11.3434 71.5237 11.9134 70.3522 11.9134C68.3266 11.9013 67.4846 10.3367 67.4724 8.566C67.4724 6.85592 68.2412 5.30351 70.3034 5.30351C71.9752 5.30351 72.9392 6.35867 72.927 7.89895C72.9148 8.71154 72.5609 8.94197 71.8166 8.94197H69.1198C69.1442 9.74244 69.3882 10.5914 70.3888 10.5793C70.9014 10.5793 71.1454 10.3488 71.3651 9.93649C71.4871 9.70605 71.7922 9.60903 72.2559 9.65754C72.7928 9.71818 72.8416 10.0699 72.7562 10.3125Z" fill="#DFDFDF"/>
<path d="M16.2015 6.61359L16.8772 5.87641L16.2713 5.32108L15.6091 5.80791L16.2015 6.61359ZM15.4805 7.17181L16.1145 7.94517L16.1145 7.94517L15.4805 7.17181ZM14.6892 7.17181L14.1342 8.00363L14.6892 7.17181ZM13.9843 6.7111L14.5233 5.8688L13.811 5.41301L13.2432 6.03965L13.9843 6.7111ZM13.838 8.37477L12.9972 8.91609L13.5481 9.77187L14.3941 9.2059L13.838 8.37477ZM16.4696 8.33474L15.9312 9.17742L16.7988 9.73173L17.3276 8.84839L16.4696 8.33474ZM8.6204 11.3513L9.06568 12.2467L10.0252 11.7695L9.48293 10.8453L8.6204 11.3513ZM8.66979 3.84241L9.52561 4.35968L10.1148 3.38492L9.07197 2.92684L8.66979 3.84241ZM1.38966 2.30167L0.705267 1.57256L0.705267 1.57256L1.38966 2.30167ZM1.78236 4.2429L0.88793 4.69011L1.78236 4.2429ZM2.19477 11.5681L3.14751 11.8719L2.19477 11.5681ZM1.94096 13.6343L1.0983 14.1727L1.09831 14.1727L1.94096 13.6343ZM21.6359 11.396L20.7769 10.8839L20.2423 11.7807L21.1612 12.2762L21.6359 11.396ZM21.4167 3.53514L20.9764 2.63728L19.9461 3.14252L20.5875 4.09407L21.4167 3.53514ZM28.6591 1.44596L29.402 0.776526V0.776525L28.6591 1.44596ZM28.0923 4.07665L28.9819 4.53324V4.53324L28.0923 4.07665ZM27.8277 10.9781L26.8955 11.3401V11.3401L27.8277 10.9781ZM28.1901 13.6343L28.8673 14.3701L28.1901 13.6343ZM15.6091 5.80791C15.3421 6.00421 15.0869 6.20142 14.8466 6.39845L16.1145 7.94517C16.3244 7.77308 16.5515 7.59742 16.7938 7.41928L15.6091 5.80791ZM14.8466 6.39845C14.7394 6.48633 14.6268 6.57577 14.5092 6.66661L15.7316 8.24953C15.8634 8.1478 15.9911 8.04629 16.1145 7.94517L14.8466 6.39845ZM14.1342 8.00363C14.2796 8.1007 14.4247 8.19699 14.5693 8.29249L15.6715 6.62366C15.5296 6.52989 15.3871 6.43533 15.2443 6.34L14.1342 8.00363ZM13.4453 7.55341C13.6735 7.69945 13.9032 7.8495 14.1342 8.00363L15.2443 6.34C15.0026 6.17876 14.7623 6.02171 14.5233 5.8688L13.4453 7.55341ZM13.2432 6.03965C12.8534 6.46991 12.6161 7.03719 12.6161 7.6383H14.6161C14.6161 7.56566 14.6466 7.46945 14.7253 7.38255L13.2432 6.03965ZM12.6161 7.6383C12.6161 8.10063 12.7568 8.54277 12.9972 8.91609L14.6788 7.83345C14.6334 7.76297 14.6161 7.69356 14.6161 7.6383H12.6161ZM14.5092 6.66661C14.1428 6.94954 13.7304 7.24355 13.2819 7.54363L14.3941 9.2059C14.8722 8.88599 15.3225 8.56548 15.7316 8.24954L14.5092 6.66661ZM14.5693 8.29249C15.0283 8.59569 15.4827 8.89087 15.9312 9.17742L17.008 7.49205C16.5682 7.21103 16.1223 6.92136 15.6715 6.62366L14.5693 8.29249ZM17.3276 8.84839C17.5421 8.49012 17.6666 8.07314 17.6666 7.6383H15.6666C15.6666 7.69021 15.6514 7.75462 15.6116 7.82108L17.3276 8.84839ZM17.6666 7.6383C17.6666 6.95924 17.3643 6.32287 16.8772 5.87641L15.5258 7.35078C15.6266 7.44319 15.6666 7.55553 15.6666 7.6383H17.6666ZM9.48293 10.8453C8.93325 9.90826 8.61611 8.81715 8.61611 7.6383H6.61611C6.61611 9.18266 7.03314 10.6219 7.75787 11.8573L9.48293 10.8453ZM8.61611 7.6383C8.61611 6.42944 8.94961 5.31265 9.52561 4.35968L7.81398 3.32513C7.05478 4.58118 6.61611 6.05434 6.61611 7.6383H8.61611ZM2.07406 3.03078C1.97787 3.12108 1.90841 3.12776 1.96144 3.11358C2.00415 3.10215 2.09543 3.08595 2.24896 3.0808C2.55582 3.07052 3.00611 3.10735 3.59602 3.21797C4.7691 3.43794 6.37595 3.92702 8.26761 4.75797L9.07197 2.92684C7.0743 2.04933 5.31987 1.50635 3.96462 1.25223C3.29036 1.1258 2.68471 1.06508 2.18198 1.08192C1.93072 1.09034 1.67879 1.11887 1.44464 1.1815C1.22081 1.24137 0.940853 1.35143 0.705267 1.57256L2.07406 3.03078ZM2.67679 3.7957C2.56154 3.56519 2.46491 3.3716 2.38544 3.19649C2.30528 3.01987 2.25746 2.89383 2.23221 2.80316C2.20565 2.70777 2.22037 2.70757 2.21288 2.7643C2.20171 2.84898 2.15521 2.95461 2.07406 3.03078L0.705267 1.57256C0.0957847 2.14467 0.1808 2.89175 0.305503 3.33962C0.428089 3.77989 0.678643 4.27152 0.88793 4.69011L2.67679 3.7957ZM3.8984 7.93137C3.8984 6.2065 3.1544 4.75095 2.67679 3.7957L0.88793 4.69011C1.38767 5.68962 1.8984 6.74359 1.8984 7.93137H3.8984ZM3.14751 11.8719C3.45679 10.9019 3.8984 9.53548 3.8984 7.93137H1.8984C1.8984 9.18731 1.55556 10.281 1.24203 11.2643L3.14751 11.8719ZM2.78361 13.0958C2.85618 13.2094 2.79132 13.2449 2.8397 12.9648C2.88519 12.7014 2.99049 12.3643 3.14751 11.8719L1.24203 11.2643C1.0997 11.7106 0.942994 12.1952 0.868866 12.6245C0.79762 13.037 0.755531 13.6363 1.0983 14.1727L2.78361 13.0958ZM8.17513 10.4559C6.54873 11.2647 4.99686 11.9385 3.83027 12.347C3.24026 12.5536 2.78809 12.6783 2.49003 12.7273C2.33529 12.7527 2.27775 12.7481 2.28621 12.7489C2.29278 12.7496 2.35386 12.7558 2.44023 12.7946C2.53215 12.8358 2.67414 12.9245 2.78361 13.0958L1.09831 14.1727C1.39155 14.6316 1.87495 14.7168 2.07818 14.7381C2.32707 14.7641 2.58624 14.7383 2.81465 14.7008C3.28286 14.6238 3.86265 14.4547 4.49125 14.2346C5.76188 13.7897 7.39386 13.078 9.06568 12.2467L8.17513 10.4559ZM21.6666 7.6383C21.6666 8.83331 21.3407 9.93825 20.7769 10.8839L22.4948 11.9081C23.238 10.6615 23.6666 9.20398 23.6666 7.6383H21.6666ZM20.5875 4.09407C21.2675 5.10295 21.6666 6.31597 21.6666 7.6383H23.6666C23.6666 5.90448 23.1411 4.30429 22.2459 2.97621L20.5875 4.09407ZM29.402 0.776525C29.1251 0.469304 28.7681 0.350344 28.5047 0.300649C28.2314 0.24909 27.9436 0.249925 27.6728 0.272451C27.1287 0.317694 26.4806 0.466408 25.7931 0.673338C24.4067 1.09061 22.6885 1.79774 20.9764 2.63728L21.857 4.433C23.5072 3.62376 25.1202 2.9645 26.3695 2.58847C26.9998 2.39875 27.4956 2.29409 27.8385 2.26557C28.0111 2.25122 28.1026 2.26007 28.1339 2.26598C28.1751 2.27375 28.0481 2.26171 27.9162 2.11539L29.402 0.776525ZM28.9819 4.53324C29.257 3.99729 29.5759 3.38441 29.7399 2.82691C29.9023 2.2751 30.0082 1.44923 29.402 0.776526L27.9162 2.11539C27.8091 1.99646 27.9219 1.92022 27.8212 2.26245C27.7222 2.599 27.5082 3.02457 27.2026 3.62006L28.9819 4.53324ZM27.9394 7.5222C27.9394 6.60976 28.4186 5.63084 28.9819 4.53324L27.2026 3.62006C26.6942 4.61056 25.9394 6.03642 25.9394 7.5222H27.9394ZM28.7599 10.6161C28.3316 9.5134 27.9394 8.46871 27.9394 7.5222H25.9394C25.9394 8.91282 26.4994 10.3202 26.8955 11.3401L28.7599 10.6161ZM28.8673 14.3701C29.5314 13.759 29.4547 12.9022 29.3493 12.3882C29.235 11.8308 28.9833 11.1914 28.7599 10.6161L26.8955 11.3401C27.1412 11.9727 27.3172 12.4346 27.3901 12.79C27.4718 13.1886 27.3418 13.0559 27.513 12.8984L28.8673 14.3701ZM21.1612 12.2762C22.9133 13.2209 24.4598 13.9425 25.6656 14.3608C26.2636 14.5683 26.8225 14.7172 27.3034 14.7675C27.7112 14.8102 28.3783 14.8201 28.8673 14.3701L27.513 12.8984C27.7111 12.7161 27.8462 12.8134 27.5117 12.7784C27.2502 12.751 26.8561 12.6569 26.3211 12.4713C25.2609 12.1035 23.8212 11.4383 22.1105 10.5158L21.1612 12.2762Z" fill="#DEDEDE"/>
<ellipse cx="15.1415" cy="7.6383" rx="4.52525" ry="4.42553" stroke="#E3E3E3" stroke-width="2"/>
</svg>
