<svg width="56" height="39" viewBox="0 0 56 39" fill="none" xmlns="http://www.w3.org/2000/svg">
<path fill-rule="evenodd" clip-rule="evenodd" d="M23.3038 4.25355C25.1099 2.38119 27.6243 1.21991 30.4051 1.21991C34.1018 1.21991 37.3269 3.27086 39.0445 6.31554C40.5371 5.65205 42.1891 5.28293 43.9273 5.28293C50.5946 5.28293 56 10.708 56 17.3998C56 24.0924 50.5946 29.5175 43.9273 29.5175C43.1287 29.518 42.3321 29.439 41.5493 29.2817C40.0369 31.9661 37.1547 33.7798 33.8465 33.7798C32.4617 33.7798 31.1518 33.4615 29.9856 32.8956C28.4523 36.4839 24.8801 39 20.7168 39C16.3812 39 12.6862 36.2704 11.2678 32.4423C10.648 32.5733 10.0058 32.6416 9.3469 32.6416C4.18486 32.6416 0 28.4349 0 23.2448C0 19.7667 1.88023 16.7299 4.67384 15.1052C4.09871 13.7885 3.77879 12.3351 3.77879 10.8072C3.77879 4.83846 8.64889 0 14.6557 0C18.1825 0 21.3167 1.66839 23.3038 4.25355Z" fill="#E6E6E6"/>
<path fill-rule="evenodd" clip-rule="evenodd" d="M8.02805 20.3259C8.01136 20.3079 7.98367 20.2781 8.0126 20.1918L8.2384 19.4778C8.27412 19.3545 8.35596 19.3953 8.3885 19.4189C8.41481 19.437 8.43838 19.4544 8.46295 19.4725L8.46303 19.4726L8.46304 19.4726C8.49632 19.4972 8.53142 19.5231 8.57757 19.5539C9.24246 20.0332 9.85812 20.0378 10.0512 20.0378C10.5485 20.0378 10.8567 19.737 10.8567 19.3329V19.3111C10.8567 18.8694 10.3834 18.7034 9.83358 18.5107L9.83188 18.5101L9.71036 18.4675C8.95487 18.2211 8.14858 17.8677 8.14858 16.7777V16.756C8.14858 15.7221 8.8794 15.0009 9.92639 15.0009L10.0408 15C10.6556 15 11.2498 15.2039 11.6796 15.502C11.7185 15.5292 11.7566 15.5799 11.7352 15.6488C11.7153 15.7122 11.5246 16.2975 11.5024 16.3628C11.4619 16.4851 11.3515 16.4035 11.3515 16.4035C10.9749 16.1662 10.3903 15.9795 9.89775 15.9795C9.45447 15.9795 9.1685 16.2477 9.1685 16.612V16.6346C9.1685 17.0603 9.65729 17.2414 10.2241 17.4515L10.2241 17.4515L10.225 17.4519L10.3227 17.4881C11.075 17.759 11.8765 18.1341 11.8765 19.1671V19.1888C11.8765 20.306 11.1664 21 10.0225 21C9.46084 21 8.92377 20.8995 8.35501 20.5552C8.33275 20.5407 8.31053 20.5266 8.28834 20.5124L8.28833 20.5124C8.20362 20.4584 8.1195 20.4048 8.03643 20.3359C8.03452 20.3328 8.03153 20.3296 8.02806 20.3259L8.02806 20.3259L8.02806 20.3259L8.02805 20.3259L8.02805 20.3259L8.02805 20.3259ZM24.7745 20.3259C24.7578 20.3079 24.7301 20.2781 24.759 20.1918L24.9846 19.4778C25.018 19.3609 25.1149 19.4035 25.1356 19.4189L25.1737 19.4471L25.1737 19.4471C25.2183 19.4802 25.2611 19.512 25.3239 19.5539C25.9888 20.0332 26.6044 20.0378 26.7974 20.0378C27.2947 20.0378 27.6037 19.737 27.6037 19.3329V19.3111C27.6037 18.8697 27.1302 18.7037 26.5809 18.5111L26.5781 18.5101L26.4566 18.4675C25.7011 18.2211 24.8948 17.8677 24.8948 16.7777V16.756C24.8948 15.7221 25.6256 15.0009 26.6726 15.0009L26.7871 15C27.4019 15 27.9961 15.2039 28.4259 15.502C28.4648 15.5292 28.503 15.5799 28.4815 15.6488C28.4616 15.7122 28.2709 16.2975 28.2487 16.3628C28.2082 16.4851 28.0978 16.4035 28.0978 16.4035C27.7212 16.1662 27.1366 15.9795 26.644 15.9795C26.2008 15.9795 25.9148 16.2477 25.9148 16.612V16.6346C25.9148 17.0602 26.4036 17.2414 26.9704 17.4515L26.9714 17.4519L27.0691 17.4881C27.8214 17.759 28.6229 18.1341 28.6229 19.1671V19.1888C28.6229 20.306 27.9127 21 26.7688 21C26.2072 21 25.6701 20.8995 25.1014 20.5552C25.079 20.5407 25.0567 20.5264 25.0344 20.5122C24.9498 20.4583 24.8658 20.4048 24.7828 20.3359C24.7809 20.3328 24.7779 20.3296 24.7745 20.3259ZM36.1913 18.0035C36.1913 18.635 36.0881 19.1324 35.8847 19.484C35.6837 19.832 35.3795 20.0014 34.9553 20.0014C34.5304 20.0014 34.2277 19.8329 34.0299 19.484C33.8296 19.1334 33.728 18.635 33.728 18.0035C33.728 17.3729 33.8296 16.8764 34.0299 16.5284C34.2277 16.1841 34.5304 16.0165 34.9553 16.0165C35.3795 16.0165 35.6838 16.1841 35.8856 16.5284C36.0881 16.8763 36.1913 17.3729 36.1913 18.0035ZM36.7117 15.8869C36.9063 16.1524 37.0525 16.4713 37.1462 16.8329C37.24 17.1925 37.2869 17.5867 37.2869 18.0035C37.2869 18.4203 37.2401 18.8145 37.1463 19.1741C37.0525 19.5357 36.9064 19.8546 36.7118 20.1201C36.5171 20.3864 36.2701 20.5994 35.9785 20.7507C35.6862 20.902 35.3422 20.979 34.9554 20.979C34.5677 20.979 34.2237 20.902 33.9314 20.7507C33.6398 20.5994 33.3928 20.3865 33.1982 20.1201C33.0028 19.8538 32.8573 19.5348 32.7628 19.1741C32.6699 18.8154 32.623 18.4212 32.623 18.0035C32.623 17.5858 32.6699 17.1925 32.7628 16.8329C32.8573 16.4722 33.0035 16.1533 33.1973 15.8869C33.3928 15.6206 33.639 15.4067 33.9313 15.2509C34.2229 15.096 34.5677 15.0171 34.9553 15.0171C35.3422 15.0171 35.6869 15.096 35.9784 15.2509C36.2708 15.4067 36.5171 15.6205 36.7117 15.8869ZM44.9873 19.8327C44.9556 19.7267 44.8658 19.7666 44.8658 19.7666C44.7268 19.8273 44.579 19.8835 44.4218 19.9116C44.2621 19.9396 44.0865 19.9542 43.8982 19.9542C43.4359 19.9542 43.0689 19.7974 42.806 19.4875C42.5422 19.1776 42.3945 18.6766 42.396 17.9989C42.3977 17.3818 42.5279 16.9179 42.7623 16.5646C42.9951 16.213 43.3494 16.0327 43.822 16.0327C44.2161 16.0327 44.5163 16.0843 44.8308 16.1976C44.8308 16.1976 44.9063 16.2347 44.942 16.1224C44.9689 16.037 44.9936 15.9595 45.0177 15.8839C45.0682 15.7251 45.1161 15.5746 45.1764 15.3776C45.2018 15.2951 45.1398 15.2598 45.1176 15.2498C44.9937 15.1945 44.7013 15.1049 44.4805 15.0668C44.2739 15.0306 44.0325 15.0115 43.764 15.0115C43.3627 15.0115 43.0053 15.0895 42.6995 15.2453C42.3944 15.4002 42.1355 15.614 41.9305 15.8805C41.7256 16.1469 41.5699 16.4657 41.4658 16.8264C41.3626 17.186 41.3101 17.5811 41.3101 17.9989C41.3101 18.9022 41.5238 19.6324 41.9457 20.1671C42.3682 20.7035 43.003 20.9762 43.8308 20.9762C44.3201 20.9762 44.8222 20.863 45.1828 20.7008C45.1828 20.7008 45.2519 20.6627 45.2217 20.5712L44.9873 19.8327ZM46.9194 16.5287C46.7883 16.7561 46.7033 17.0479 46.658 17.3985H48.9634C48.9404 17.0606 48.8824 16.7561 48.7489 16.5287C48.5479 16.1844 48.2675 15.9941 47.8433 15.9941C47.419 15.9941 47.1172 16.1835 46.9194 16.5287ZM49.8729 16.6274C49.7919 16.2786 49.5909 15.9261 49.4591 15.7648C49.2509 15.5093 49.0476 15.3308 48.8458 15.2311C48.582 15.1024 48.2659 15.0173 47.9195 15.0173C47.516 15.0173 47.1498 15.0944 46.8527 15.2538C46.5548 15.4133 46.3046 15.6308 46.1084 15.9017C45.9121 16.1717 45.7644 16.4933 45.6706 16.8585C45.5761 17.2218 45.5284 17.6178 45.5284 18.0354C45.5284 18.4604 45.5777 18.8564 45.6754 19.2124C45.7739 19.5712 45.9312 19.8874 46.1441 20.1492C46.3561 20.413 46.6295 20.6196 46.9567 20.7635C47.2817 20.9067 47.6765 20.981 48.1301 20.9801C49.0635 20.9764 49.5552 20.7391 49.7578 20.6113C49.7935 20.5887 49.8277 20.5488 49.7847 20.4347L49.5734 19.7596C49.5417 19.659 49.4519 19.6962 49.4519 19.6962C49.4317 19.7047 49.4107 19.7139 49.3888 19.7235C49.1599 19.8234 48.8249 19.9697 48.1253 19.968C47.624 19.9671 47.2522 19.7986 47.0194 19.5349C46.7803 19.2649 46.6636 18.868 46.6429 18.3081L49.8753 18.3117C49.8753 18.3117 49.9602 18.3099 49.969 18.2157L49.971 18.1987C49.9853 18.0793 50.0664 17.4026 49.8729 16.6274ZM21.0329 16.5287C20.9018 16.7561 20.8176 17.0479 20.7715 17.3985H23.0768C23.0538 17.0606 22.9958 16.7561 22.8631 16.5287C22.6614 16.1844 22.3809 15.9941 21.9568 15.9941C21.5326 15.9941 21.2307 16.1835 21.0329 16.5287ZM23.9856 16.6274C23.9046 16.2786 23.7044 15.9261 23.5726 15.7648C23.3644 15.5093 23.161 15.3308 22.9593 15.2311C22.6956 15.1024 22.3794 15.0173 22.0331 15.0173C21.6303 15.0173 21.2633 15.0944 20.9662 15.2538C20.6683 15.4133 20.4181 15.6308 20.2219 15.9017C20.0257 16.1717 19.8779 16.4933 19.7842 16.8585C19.6904 17.2218 19.642 17.6178 19.642 18.0354C19.642 18.4604 19.6912 18.8564 19.789 19.2124C19.8875 19.5712 20.0448 19.8874 20.2576 20.1492C20.4698 20.413 20.743 20.6196 21.0703 20.7635C21.3952 20.9067 21.79 20.981 22.2436 20.9801C23.177 20.9764 23.6687 20.7391 23.8713 20.6113C23.9071 20.5887 23.9412 20.5488 23.8983 20.4347L23.6878 19.7596C23.6552 19.659 23.5655 19.6962 23.5655 19.6962C23.5453 19.7047 23.5242 19.7139 23.5023 19.7235L23.5022 19.7236C23.2734 19.8235 22.9388 19.9697 22.2381 19.968C21.7377 19.9671 21.3659 19.7986 21.1331 19.5349C20.894 19.2649 20.7772 18.868 20.7565 18.3081L23.9889 18.3117C23.9889 18.3117 24.0738 18.3099 24.0826 18.2157L24.0846 18.1981C24.099 18.0771 24.1794 17.4014 23.9856 16.6274ZM13.5982 19.5942C13.641 19.6685 13.6585 19.6974 13.7848 19.8126C13.7824 19.8117 14.0748 20.0735 14.7325 20.0281C15.1948 19.9964 15.6055 19.8959 15.6055 19.8959H15.6047V18.2197C15.6047 18.2197 15.1909 18.1417 14.7278 18.1345C14.0685 18.1245 13.7881 18.4018 13.7904 18.4009C13.5958 18.5576 13.502 18.7905 13.502 19.1149C13.502 19.3196 13.5346 19.4809 13.5982 19.5942ZM15.0709 17.2221C14.9398 17.2112 14.7698 17.2048 14.5665 17.2048C14.2892 17.2048 14.0215 17.2447 13.7705 17.3217C13.5179 17.3987 13.2907 17.5193 13.0953 17.6787C12.9001 17.8375 12.7398 18.0456 12.6266 18.2866C12.5122 18.5295 12.4542 18.8158 12.4542 19.1366C12.4542 19.4628 12.5035 19.7463 12.602 19.9784C12.7005 20.2112 12.8427 20.4051 13.0238 20.5546C13.2033 20.7041 13.425 20.8137 13.6823 20.8799C13.9357 20.946 14.2233 20.9795 14.5379 20.9795C14.8691 20.9795 15.1996 20.9487 15.5197 20.8862C15.8367 20.8245 16.2259 20.7348 16.3339 20.7068C16.4097 20.686 16.4852 20.6639 16.5604 20.6406C16.6406 20.618 16.6343 20.5201 16.6343 20.5201L16.6326 17.1487C16.6326 16.4093 16.4595 15.8611 16.1187 15.5213C15.7795 15.1825 15.2798 15.0111 14.634 15.0111C14.3917 15.0111 14.0017 15.0493 13.7681 15.1027C13.7681 15.1027 13.0619 15.2586 12.7711 15.5177C12.7711 15.5177 12.7076 15.563 12.7425 15.6645L12.9714 16.3658C12.9999 16.4564 13.077 16.4256 13.077 16.4256C13.077 16.4256 13.1016 16.4147 13.1303 16.3957C13.7523 16.0097 14.5387 16.0215 14.5387 16.0215C14.8883 16.0215 15.1568 16.1012 15.3379 16.2598C15.5142 16.4138 15.604 16.6466 15.604 17.1377V17.2936C15.3259 17.2483 15.0709 17.2221 15.0709 17.2221ZM41.0928 15.1901C41.1143 15.1992 41.1658 15.239 41.1413 15.3224C41.1111 15.423 40.9538 15.9277 40.8981 16.0962C40.8775 16.1605 40.8425 16.204 40.7806 16.1958C40.7806 16.1958 40.5947 16.1461 40.4255 16.1461C40.3079 16.1461 40.1419 16.1632 39.9918 16.2158C39.8448 16.2675 39.7106 16.359 39.5922 16.4894C39.4747 16.6208 39.3793 16.8038 39.3094 17.0322C39.2379 17.2633 39.2021 17.6311 39.2021 17.9999V20.747C39.2023 20.8088 39.1586 20.8591 39.1045 20.8594H38.2552C38.2013 20.8594 38.1568 20.8087 38.1568 20.747V15.2481C38.1568 15.1855 38.1957 15.1357 38.2497 15.1357H39.0782C39.1323 15.1357 39.1712 15.1856 39.1712 15.2481V15.6966C39.2951 15.5072 39.5175 15.3405 39.7177 15.2372C39.9196 15.134 40.1451 15.056 40.551 15.0841C40.7631 15.0995 41.038 15.1657 41.0928 15.1901Z" fill="white"/>
<path fill-rule="evenodd" clip-rule="evenodd" d="M32.6287 14.0316C32.7467 14.0533 32.8372 14.0737 32.9368 14.1037C32.9582 14.1119 33.0188 14.1412 32.9943 14.2105L32.7559 14.8522C32.7359 14.9002 32.7222 14.9295 32.6202 14.8995C32.5949 14.8919 32.5573 14.8814 32.4608 14.8611C32.391 14.8469 32.2983 14.8363 32.2048 14.8363C32.0815 14.8363 31.9687 14.8513 31.8699 14.8829C31.7733 14.9138 31.6852 14.9671 31.6085 15.0422C31.5311 15.1189 31.4391 15.2309 31.3901 15.3684C31.2927 15.6443 31.2455 15.9351 31.2304 16.0284C31.2277 16.0446 31.2261 16.0549 31.2253 16.0581H32.2224C32.3059 16.0581 32.332 16.0957 32.3243 16.1565L32.2079 16.7922C32.1901 16.8846 32.1036 16.8816 32.1036 16.8816H31.0766L30.3738 20.779C30.3003 21.1817 30.2075 21.5273 30.0995 21.8054C29.9906 22.0871 29.8764 22.293 29.6948 22.4898C29.5261 22.6716 29.3361 22.8062 29.1185 22.8836C28.9015 22.9602 28.6394 23 28.3528 23C28.2156 23 28.0693 22.9978 27.8961 22.9579C27.7711 22.9286 27.7029 22.9076 27.6109 22.876C27.5719 22.8618 27.5413 22.8144 27.5627 22.7536C27.5849 22.6927 27.7688 22.1975 27.7942 22.1322C27.8264 22.0533 27.9068 22.0833 27.9068 22.0833C27.9628 22.1066 28.0019 22.1224 28.0754 22.1367C28.1498 22.1517 28.2502 22.1638 28.3253 22.1638C28.4609 22.1638 28.5851 22.1472 28.6924 22.1119C28.8227 22.0691 28.8978 21.9955 28.9775 21.8963C29.0603 21.7926 29.1269 21.6506 29.1952 21.4612C29.2649 21.2689 29.3277 21.0157 29.3822 20.7076L30.0812 16.8816H29.3922C29.3094 16.8816 29.2826 16.8433 29.291 16.7831L29.4067 16.1467C29.4251 16.055 29.511 16.058 29.511 16.058H30.219L30.2574 15.8514C30.3632 15.2375 30.574 14.7709 30.8844 14.4643C31.1962 14.1563 31.6408 14 32.2049 14C32.3666 14 32.5091 14.0106 32.6287 14.0316ZM18.9159 20.8083C18.968 20.8083 19.0055 20.767 19.0055 20.7159V14.1909C19.0055 14.1398 18.968 14.0985 18.9159 14.0985H18.0889C18.0368 14.0985 18 14.1398 18 14.1909V20.7159C18 20.767 18.0368 20.8083 18.0889 20.8083H18.9159Z" fill="white"/>
</svg>
