<svg width="63" height="32" fill="none" xmlns="http://www.w3.org/2000/svg"><path fill-rule="evenodd" clip-rule="evenodd" d="M3 3.014c0-.325 10 4.992 28.334 12.274C47.5 22.983 60 29.472 60 28.973V3.014c0-.153-16.5 7.488-26.97 12.274C23.5 19.644 3 29.304 3 28.973V3.014z" fill="#fff"/><path d="M3 3.014h2.5H3zm28.334 12.274l1.075-2.258-.075-.035-.077-.03-.923 2.323zm1.696 0l-1.04-2.274 1.04 2.274zM3 28.973H.5 3zm0-11.981H.5 3zM5.5 3.014a2.488 2.488 0 01-1.409 2.242 2.455 2.455 0 01-1.537.196 1.837 1.837 0 01-.142-.035c-.061-.018-.051-.02.094.041.257.107.676.296 1.293.581 1.192.552 3.058 1.434 5.45 2.531a436.788 436.788 0 0021.162 9.041l1.846-4.647a431.68 431.68 0 01-20.922-8.938c-2.4-1.1-4.18-1.943-5.436-2.524A45.303 45.303 0 004.425.84a6.153 6.153 0 00-.603-.22C3.753.6 3.472.515 3.124.502a2.545 2.545 0 00-1.2.248A2.513 2.513 0 00.5 3.014h5zm24.76 14.531c8.066 3.84 15.214 7.377 20.37 9.903 2.567 1.259 4.66 2.276 6.115 2.949.718.332 1.33.603 1.783.778.204.079.486.183.767.247.093.022.451.106.888.068.21-.019.742-.087 1.277-.476a2.521 2.521 0 001.04-2.041h-5c0-.76.355-1.52 1.021-2.004a2.448 2.448 0 011.223-.46 2.29 2.29 0 01.673.04c.09.021.087.03-.082-.036a29.19 29.19 0 01-1.492-.655c-1.394-.645-3.436-1.637-6.014-2.9-5.136-2.517-12.32-6.072-20.42-9.927l-2.15 4.514zM62.5 28.973v-12.48h-5v12.48h5zm0-12.48V3.014h-5v13.479h5zm0-13.479A2.502 2.502 0 0060.31.532a2.481 2.481 0 00-.744.017c-.19.032-.34.081-.376.092a4.863 4.863 0 00-.296.108c-.161.064-.374.153-.614.257-.49.211-1.19.523-2.047.908-1.72.774-4.116 1.867-6.833 3.112-5.445 2.495-12.172 5.594-17.41 7.988l2.08 4.548c5.232-2.392 11.99-5.506 17.413-7.99 2.716-1.245 5.099-2.332 6.801-3.098a160.92 160.92 0 011.977-.878c.231-.1.384-.163.469-.196.052-.02.036-.013-.015.003-.004.001-.131.044-.305.074-.045.007-.345.064-.727.015A2.495 2.495 0 0157.5 3.014h5zm-30.51 10c-4.769 2.18-12.298 5.694-18.597 8.604a824.9 824.9 0 01-8.063 3.687c-1.031.462-1.844.818-2.391 1.046-.281.117-.453.183-.536.212-.06.021-.001-.003.112-.028.02-.004.264-.064.588-.052a2.494 2.494 0 012.397 2.49h-5a2.506 2.506 0 002.426 2.507c.345.012.619-.052.677-.065.192-.042.366-.102.46-.135.22-.078.499-.19.797-.313.611-.255 1.474-.633 2.514-1.098a827.393 827.393 0 008.116-3.712c6.333-2.926 13.819-6.42 18.58-8.595l-2.08-4.548zM5.5 28.973V16.992h-5v11.98l5 .001zm0-11.981V3.014h-5v13.978h5z" fill="#D0D0D0"/><ellipse cx="32.303" cy="16.298" rx="9.697" ry="9.532" fill="#fff" stroke="#D0D0D0" stroke-width="4"/></svg>