<svg width="17" height="9" fill="none" xmlns="http://www.w3.org/2000/svg"><path d="M3.723 2.045l.446.228.25-.49-.512-.203-.184.465zm.084 6.068l.23.444.454-.235-.245-.448-.439.24zm-2.413.79l.44-.239-.44.239zm.137-1.32l.483.131-.483-.13zm-.223-4.677l-.46.196.46-.196zm-.213-1.24l-.371-.335.37.336zm14.792-.546l-.397.304.397-.304zm-2.734.694l-.221-.448-.474.233.26.46.435-.245zm2.427.986l.458.2-.458-.2zm-.144 4.407l.475-.157-.475.157zm.197 1.696l-.367-.34.367.34zm-2.453-.767l-.438-.241-.239.434.432.243.245-.436zM3.5 5c0-.903.228-1.864.669-2.727l-.891-.455A7.087 7.087 0 002.5 5h1zm.746 2.874A6.095 6.095 0 013.5 5h-1c0 1.125.298 2.309.868 3.353l.878-.48zm-.669-.205c-.626.325-1.172.569-1.565.702a1.955 1.955 0 01-.408.104c-.038.003-.028-.003.009.007a.37.37 0 01.22.182l-.879.477a.632.632 0 00.398.306.98.98 0 00.337.024 2.83 2.83 0 00.643-.153c.463-.156 1.06-.426 1.705-.76l-.46-.889zm-1.744.995c.007.013-.02-.03.008-.225.028-.185.09-.415.173-.725l-.965-.261c-.079.29-.16.584-.197.841-.036.247-.051.564.102.847l.88-.477zm.18-.95c.17-.621.4-1.465.4-2.453h-1c0 .84-.195 1.566-.364 2.192l.965.261zm.4-2.453c0-1.045-.383-1.933-.645-2.55l-.92.39c.268.632.565 1.345.565 2.16h1zm-.645-2.55c-.13-.304-.215-.51-.252-.668-.04-.164.014-.113-.05-.04L.723 1.33c-.278.307-.241.69-.182.942.062.259.189.554.305.829l.92-.391zm-.303-.709c-.058.065-.095.045.01.03.088-.011.229-.012.429.013.397.05.953.196 1.635.465l.368-.93c-.732-.29-1.372-.463-1.877-.527a2.687 2.687 0 00-.693-.01c-.19.026-.437.093-.613.288l.741.671zM16.285.816c-.206-.268-.527-.313-.732-.316a2.845 2.845 0 00-.748.115c-.528.142-1.184.411-1.873.75l.442.898c.662-.326 1.252-.564 1.691-.683.223-.06.38-.081.476-.08.12.001.033.033-.05-.076l.793-.608zM16.037 3c.152-.348.317-.722.4-1.057.082-.325.126-.762-.154-1.127l-.794.608s.002.001.003.005a.15.15 0 01.006.037.787.787 0 01-.03.234c-.06.237-.184.526-.347.9l.916.4zm-.584 2c0-.643.284-1.313.584-2l-.916-.4c-.282.646-.668 1.511-.668 2.4h1zm.457 2.05c-.229-.694-.457-1.399-.457-2.05h-1c0 .841.29 1.702.508 2.363l.95-.313zM16 9.242c.307-.333.275-.786.222-1.092-.058-.336-.189-.727-.312-1.1l-.95.313c.132.398.234.71.277.958.048.276-.012.286.028.243l.734.678zm-3.066-.67c.66.372 1.245.65 1.713.8.231.073.461.125.671.128.201.003.478-.038.681-.258l-.734-.678c.078-.085.148-.063.068-.064a1.446 1.446 0 01-.382-.081c-.372-.12-.889-.36-1.527-.718l-.49.871zM13.5 5c0 .962-.259 1.99-.758 2.895l.876.483c.58-1.05.882-2.245.882-3.378h-1zm-.783-2.94c.515.915.783 1.961.783 2.94h1a7.096 7.096 0 00-.912-3.43l-.87.49z" fill="#D0D0D0"/><circle cx="8.5" cy="5.5" r="2.5" stroke="#D0D0D0"/></svg>